/* XPM */
static char *result[] = {
/* columns rows colors chars-per-pixel */
"64 64 180 2 ",
"   c #5E2D0F",
".  c #642B0E",
"X  c #6A300F",
"o  c #753C0F",
"O  c #7B3B0E",
"+  c #6A2E15",
"@  c #673115",
"#  c #6C3615",
"$  c #6E3B1B",
"%  c #753710",
"&  c #7B3F14",
"*  c #723A1A",
"=  c #7B3E1B",
"-  c #7A400F",
";  c #7D4113",
":  c #7C431B",
">  c #7F491D",
",  c #7A4122",
"<  c #7E4A26",
"1  c #814414",
"2  c #884716",
"3  c #854917",
"4  c #894D16",
"5  c #83461A",
"6  c #854B1C",
"7  c #8A4D1D",
"8  c #924E11",
"9  c #8C511F",
"0  c #91511F",
"q  c #9B5A1F",
"w  c #814724",
"e  c #854C22",
"r  c #8A4E22",
"t  c #844D29",
"y  c #884E2A",
"u  c #865123",
"i  c #8C5324",
"p  c #8C5827",
"a  c #84512A",
"s  c #8D552A",
"d  c #8E592B",
"f  c #915524",
"g  c #935A24",
"h  c #9B5D25",
"j  c #915629",
"k  c #935C2C",
"l  c #9A5D2B",
"z  c #8B5732",
"x  c #8E5C31",
"c  c #925634",
"v  c #945D32",
"b  c #9A5E32",
"n  c #A15E23",
"m  c #9F6225",
"M  c #96612D",
"N  c #9B632D",
"B  c #8F6034",
"V  c #966234",
"C  c #9C6533",
"Z  c #9D6A35",
"A  c #976439",
"S  c #9B663A",
"D  c #97683A",
"F  c #9D6B3C",
"G  c #9F703A",
"H  c #A26226",
"J  c #A96727",
"K  c #AA6A27",
"L  c #A2652D",
"P  c #A66A2F",
"I  c #AB6C2C",
"U  c #AE702E",
"Y  c #B0702F",
"T  c #A16633",
"R  c #A46A35",
"E  c #A96D34",
"W  c #A2673A",
"Q  c #A46D3B",
"!  c #A86E3B",
"~  c #AC7235",
"^  c #A4713D",
"/  c #AB723D",
"(  c #B27434",
")  c #B57935",
"_  c #BC7E35",
"`  c #B1763C",
"'  c #B47B3C",
"]  c #B97D3B",
"[  c #916440",
"{  c #9D6D41",
"}  c #9F7142",
"|  c #A36E42",
" . c #AA6F41",
".. c #A37344",
"X. c #AB7443",
"o. c #AE7946",
"O. c #A57549",
"+. c #AB764A",
"@. c #A7794B",
"#. c #AB7B4C",
"$. c #B07643",
"%. c #B27B45",
"&. c #B1774A",
"*. c #B17C4B",
"=. c #A77C51",
"-. c #AC7D52",
";. c #B17D51",
":. c #B7813F",
">. c #BA823D",
",. c #C68C3C",
"<. c #AD814E",
"1. c #B68144",
"2. c #BA8445",
"3. c #BC8947",
"4. c #B4824C",
"5. c #BA864B",
"6. c #B7884E",
"7. c #BD8A4D",
"8. c #AD8354",
"9. c #AD845A",
"0. c #AE895C",
"q. c #B38454",
"w. c #BA8652",
"e. c #B58856",
"r. c #BC8B53",
"t. c #B2865A",
"y. c #B9865B",
"u. c #B48A5B",
"i. c #B98D5C",
"p. c #BD9256",
"a. c #BD925C",
"s. c #AF8660",
"d. c #AF8960",
"f. c #B08760",
"g. c #B48C62",
"h. c #BA8E62",
"j. c #B68F69",
"k. c #B69165",
"l. c #BC9264",
"z. c #BF9866",
"x. c #B79369",
"c. c #BB946C",
"v. c #BE996E",
"b. c #BE9770",
"n. c #BE9972",
"m. c #BF9C78",
"M. c #C28B47",
"N. c #C98C44",
"B. c #C18A4E",
"V. c #CB9347",
"C. c #CC964E",
"Z. c #CB994E",
"A. c #D19A49",
"S. c #C18E55",
"D. c #C18F5A",
"F. c #C39153",
"G. c #C99455",
"H. c #CE9956",
"J. c #C2935A",
"K. c #CA9759",
"L. c #CB995B",
"P. c #C29662",
"I. c #C59962",
"U. c #CB9B64",
"Y. c #C1976A",
"T. c #C39A6C",
"R. c #CC9F6C",
"E. c #C29C74",
"W. c #C39E79",
"Q. c #CDA065",
"!. c #CCA16C",
"~. c #D1A267",
"^. c #C6A174",
"/. c #CBA172",
"(. c #C4A27B",
"). c #C9A47E",
"_. c #CAA87F",
"`. c #DBB57E",
"'. c #C8A880",
"]. c None",
/* pixels */
"].].].].].].].].].].].].].].].].].].].].].].].].].].].].].].].].].].].].].].].].].].].].].].].].].].].].].].].].].].].].].].].].",
"].].].1.2.' 2.2.1.>.2.3.' ' 2.5.3.5.5.S.D.r.S.S.S.S.r.S.J.p.r.r.J.B.S.7.S.J.S.w.D.J.J.w.S.S.D.S.J.S.7.B.F.2.5.2.) %.2.%.1.].].].",
"].].].2.' ) 3.B.3.1.3.2.3.r.J.7.F.r.J.P.J.J.J.r.J.J.J.a.J.a.J.r.J.J.J.J.J.J.r.r.J.J.J.J.J.J.J.U.I.D.I.I.J.K.2.~ ` %.) ' 7.].].].",
"].].].%.5.` 3.3.M.2.S.S.S.B.S.3.S.J.J.D.S.w.r.B.5.7.7.J.S.r.J.r.r.7.r.p.J.S.r.K.F.S.w.D.J.D.i.F.D.S.S.B.w.r.7.' %.2.2.2.5.].].].",
"].].].7.7.2.3.3.7.5.f = * : , : , * * , , < w < < t w w 5 n C L ~ J E 0 A z [ y O.[ O.| v { A ..| b c a c R %.` $.5.%.%.w.].].].",
"].].].w.2.r.r.r.5.w.8 6 f k C v Z v l i Z b C ! T C b Q m n N N ! E T I i j r C b b V A b b A j s C b k k ' ' ` $.7.' 1.1.].].].",
"].].].4.7.7.w.7.4.r.g r i C T ! X.~ R N ! T ! ! ! T l Q ] H N L ! R T K j i s S V F C C b v b b S S C b l ) ` $.%.w.5.%.r.].].].",
"].].].7.%.i.r.r.w.7.q f C R R ! ~ *.%./ X.R ~ %./ ` R ! >.H C C ..~ R J b k C | T ! T Q l l W C Q ! ! N N ' ` *.w.6.$.1.5.].].].",
"].].].r.4.p.J.r.p.p.n T  .X.T ~ / 4.5.e.o.E ~ *.%.5.X.! >.T C T / R / Y N N l R T L R E L T E E T R ! T l ) 4.+.w.6.1.6.4.].].].",
"].].].r.6.i.l.p.i.p.H R V *.R E ~ / 5.1.~ P ` 4.5.*.E ^ _ T F ! X.X.R _ C b C R ! E ! ! E T L R R T ! R C ] 1.o.u.4.4.1.4.].].].",
"].].].i.r.6.T.w.T.i.H N 7 ~ *.$.E E ` E ' ~ X.~ / T ~ +.( L T W X.X.! ' n W R Q R X.$./ T E R ! / E Q T T >.w.o.i.5.o.6.4.].].].",
"].].].a.l.i.c.a.P.l.H L N E %.*.' ~ ' $.1.R %.` %.` 4.4._ T T ! X.X.E ] T T W ! +.*.$./ R ` ! / ! !  .T ! >.a.o.l.w.4.i.4.].].].",
"].].].l.l.D.T.i.l.T.P T W ! X.+.+.%.o.*.*. .X.;.e.*.;.*.>.V Z | @.#...>.$.Z T b W R / o.T !  .Q C C Q R 1.%.%.y.y.%.e.i.e.].].].",
"].].].i.w.i.Y.z.z.T.4...o.+.=.-.#.u.u.e.;.e.t.-.u.q.t.e.e.r.e.i.i.i.e.e.y.c.v.j.t.g.g.u.t.j.g.e.y.t.g.y.g.u.*.g.i.e.i.w.y.].].].",
"].].].a.i.z.J.E.l.Y.i.4.r.i.o.*.*.u.e.u.u.l.i.8.q.i.e.t.z.l.l.i.l.l.a.i.c.c.P.c.v.j.T.i.i.m.x.t.;.l.W.u.j.+.8.u.r.g.l.i.l.].].].",
"].].].u.i.z.y.z.Y.z.6.w.i.P.l.D.T.P.p.a.J.E./.z.T.Y.T.u.T.c.v.T.^.^.v.(._.).'.^.E.P.T.E.).T.v.l.l.l.j.l.a.T.#.i.h.T.l.y.g.].].].",
"].].].z.l.E.i.z./.l.K.G.F.K.J.K.U.J.S.F.M.G.K.F.J.F.G.K.Q.p.u.l.l.k.a.F.I.*.D.r.I.R./.!.`.F.U.R.w.P.I.R.R.U.*.c.P.W.g.E.h.].].].",
"].].].m.y.^.l.l.E.T.Z { ..#.! O.O.Q -.&...O.X.8.e.+.#.8.e 4.q.i.<.e.4.X. .! e.%.$.o.o.o.X.! X./ ! / ! X.+.e.;.c.c.E.y.E.v.].].].",
"].].].l.i.v.T.E._.l.| v | q...| @.@.-.F -.O...-.q...+.@.e +.t.t.e.q.#.r.X.! +.@.4.e.e.e.q.*.#.&.;.q.;.;.+.e.#.j.v.(.E.c.g.].].].",
"].].].u.l.v.u.^.E.E.! A -.-.+.| ..g.y.=.t.8.O.t.Q +.u.=.C O.t.;.i.e.e.r...+.;.*.u.e.t.e.4.*.;.o.X.+.*.e.t.J.q.g.n.c.j.c.e.].].].",
"].].].k.z.z.n.m.v.v.R { =.#.0.e.O.t.u.g.t.@.q.+.o.X.#.@.C -.u.g.t.y.u.5.X.;.&.q.4.#.o.u.w.#.q.q.+.e.4.i.q.p.0.c.W.h.W.c.h.].].].",
"].].].n.l.n.v.m.(.T.! ....8.8.t.8.u.l.#.u.t.i.e.o.*.e.8.T -.f.e.t.9.g.6.! +.*.*.e.e.e.e.e.e.q.#.*.#.e.u.;.S.+.j.b.Y.W.j.g.].].].",
"].].].n.l.n.x.c.(.E.E ..+.q.-.8.t.i.l.q.l.8.h.l.@.u.8.q.h @.9.9.t.y.e.q.$.o.q.X.u.l.g.i.i.y.i.q.q.-.y.w.q.D.y.t.g.E.E.n.E.].].].",
"].].].n.n.c.E.x.E.E.! | @...e.e.u.l.u.#.q.l.t.u.+.4.0.u.L t.x.f.t.e.i.4.q.&.e.*.i.w.i.l.l.i.l.i.*.e.i.q.*.S.t.c.j.W.E.n.x.].].].",
"].].].m.c.n.v.l.c.E./ Q O.e.#.u.l.l.k.e.8.i.e.u.<.q.e.e.L e.g.8.e.9.t.1.+.&.u.&.a.i.e.l.u.y.e.e.g.5.y.q.&.S.=.b.f.W.W.b.g.].].].",
"].].].c.n.u.n.v.x.E.! X.O.4.@.i.u.u.z.k.u.i.k.e.i.#.i.0.R #.0.y.9.9.e.7.*.X.y.+.l.i.e.u.i.e.q.i.Y.&.l.u.q.S.t.x.b.W.n.b.g.].].].",
"].].].v.x.l.E.(.h.v.C Z +.X.#.e.e.<.e.q.u.i.u.l.e.<.0.t.T +.t.t.g.t.u.*.e.R w...y.i.i.i.i.e.y.u.q.#.%.e.q.J.e.g.j.j.j.E.g.].].].",
"].].].l.k.n.m.n.v.E.T T +.@.t.e.g.h.i.8.e.u.e.l.e.0.i.e.C -.f.x.y.u.u.%.$./ w.+.i.y.h.u.i.l.e.w.%.4.o.q.w.i.8.u.j.j.g.W.-.].].].",
"].].].v.0.c.u.c.h.).Z T X.@.8.q.e.l.u.u.e.e.e.u.e.8.e.u.h @.d.f.g.=.q.o.E | ;.q.u.q.u.i.u.e.y.u.+.q.*.w.y.S.-.g.g.j.t.v.E.].].].",
"].].].c.u.m.g.n.n.l.Z Q O.G e.8.e.g.0.e.u.u.i.8.u.q.u.j.q ..s.j.t.8.0.4. .X.X.*.a.u.u.e.q.4.y.u.5.+.*.o.e.*.+.g.j.y.j.u.g.].].].",
"].].].(.u.n.x.n.n.x.T T @.@.8.e.e.e.@.t.u.u.i.e.<.#.u.u.f ;.t.t.t.@.8.' ! ..X.4.u.e.e.o.w.e.<.w.4.4.%./ X.5.8.9.f.u.0.g.t.].].].",
"].].].g.8.x.g.n.j.l.C M F } e.8.8.u.t.8.0.8.8.i.o.+.q.8.h @.t.9.f.t.*./ / ! q.q.e.i.4.e.<.i.q.q.e.4.4.#.+.5.@.9.t.j.9.n.t.].].].",
"].].].x.d.c.0.c.c.c.d V F #.t.0.8.e.t.g.e.X.8.8...o.8.8.N F 9.9.8.t.8.E T ! X.#.<.q.4.q.q.e.-.l.*.o./ #.+.*.q.@.f.c.g.g.d.].].].",
"].].].x.b.b.g.u.e.k.k Z | V @...Q @.F Q } V ^ Z Z ..X.8.l { 9.d.-.j.<./ / X.C / Q / Q ! / X./ ! T T T ^ *.5...=.t.x.g.g.j.].].].",
"].].].j.x.9.0.g.g.k.u M.>._ ,.N.,.,.H.C.C.C.Z.V.Z.Z.G.K.F.} f.g.9.0.@.a.p.a.P.T.T.a.I.!.U.T.J.p.R.!.K.H.I.F.#.@.-.g.t.x.-.].].].",
"].].].x.x.8.8.u.l.u.0.9.9.e.0.0.9.0.u.d.0.d.9.8.#.0.8.8.9.t.9.0.g.d.u.t.9.d.s.u.9.t.0.d.9.d.u.9.=.=.9.9.9.q.-.#.t.t.t.y.8.].].].",
"].].].u.x.=...e.e.t.#.<.8.-.8.8.9.0.8.0.0.s.d.u.k.d.9.k.x.0.g.u.x.f.x.d.g.x.d.g.g.g.x.d.9.t.9.0.8.0.9.-.0.9.0...8.j.0.e.#.].].].",
"].].].g.0.9.O.u.0.e.O.8.#.8.8.8.8.=.=.8.8.8.8.0.9.0.9.9.9.9.s.0.e.8.0.9.d.g.d.d.u.t.g.g.d.u.t.0.d.9.8.t.e.#.@.@.u.9.u.t.@.].].].",
"].].].c.0.0.@.e.g.<.8.8.e.0.u.e.d.e.t.g.t.j.g.t.f.g.0.u.u.9.8.t.-.0.0.0.d.9.d.f.f.f.e.j.g.u.t.8.u.0.8.9.9.-.O.<.@.@.@.@.O.].].].",
"].].].0.u.d.-.x.u.8.< : y s < < z a < [ < z s e a a x a r M { ....} } : * $ , * : @ # # . $ * * * * + @     } 9...@...O...].].].",
"].].].9.t.0.@.;.e.f.V e e S A | { A S @.F A O.V @...{ x B V Q ....X.F 6 9 i D F } O.....D Z Q ..@.F V j A y { ..O.O.O.<.| ].].].",
"].].].@.9.-.@.-.-.@.V s e r s k s r a i s s A V A F v v A f Z | S O.G 5 < p s s s k d V V j S b C i s s S s ..{ O.| O.@...].].].",
"].].].@.0.@.{ +.#.-.l e w e i i r e i i x d s x V A b C C p D F } O.@.5 < p 6 6 6 7 s k d i M i b r 7 r { r D } O.| @.F -.].].].",
"].].].} t...{ Q @.+.s 6 i < e d s a s s r p x B d v A d C M } F X.#.e.2 6 9 > 6 r u k i f u v i V i 6 & b r ..} | | @.F ..].].].",
"].].].@.8.=.| .. .O.g e e a d d d s d x e V V A k d V u F V G V F ..<.3 ; e o > i i d k i k V j V d 9 7 k 7 O...{ ......! ].].].",
"].].].O.8.=...O.@.| i w > u c d b x d s s v x v V k V d Z k ^ ..Z #.o.> < u > u d i C i u V j d j M 6 5 S j F #.O.O.Q F A ].].].",
"].].]...@.-.@.Q ....9 u > 6 s d d d s s s i s v v k S i Q M ..@.F +.<.6 ; e : 6 d 6 V g e V k 7 C g f O C l A } } F ..X.| ].].].",
"].].].} =.} O.V X.F 9 6 a e a A v v i s s s u A F s V k V 9 G ....<.#.3 : : i 9 6 f k j f i 6 i s u i & v f F | ..@...Q Q ].].].",
"].].]...@.} } ..} ..7 5 i u s x v s x i s i s A v M b k T 9 Z } @.O.o.- : > r r i k i k u 9 i j s i 6 o C f A F D ..F W ^ ].].].",
"].].].F } G } F G ..f e w e s v s s e u d u d v v i i v Q V Z G ^ G / & & e 6 6 s s g k 9 i 9 i u l 7 O i f S S C ..T F Q ].].].",
"].].].} O.....! } | f r r a e x s s i i i s i V k j r i Q k Z G G Z ^ 1 1 1 3 3 i s i g i 6 9 v k k 6 ; k l C S A F Z C Q ].].].",
"].].].Q @.| ..@.G O.7 i 6 6 e i r s s v i k e v f j u s F d C ^ F F ..; 6 e 7 3 r d k f i u i j N V 9 & r 0 F | { F F Z C ].].].",
"].].].^ F ..Z #.F ..& i e 5 e v s v d v s s i d f k 7 e ! s V ..Z ^ F - & 6 1 6 7 s g l i 4 u 9 j M 4 1 7 g V S X.Z Z ..Z ].].].",
"].].]...F ^ F @.T F 7 f e a 6 x b V d v s r u i 7 6 i 6 ^ s M D Z G Z ; : 6 5 1 6 7 u 9 f u 9 i k f 4 ; r C V S C V Z N C ].].].",
"].].].O.G S ^ Q Z ..j p e r > v j j s k u i i 7 9 f 6 r Q M M N M Z Z O o 7 7 5 7 7 4 9 g 9 9 7 4 k 3 O g T v C V Z T Q l ].].].",
"].].].O.+.Q Q F F ! i 7 e u e i s f r i 7 7 r 7 i i i r N p V Z N Q ^ O 5 5 r r 7 7 9 7 9 i 7 7 4 l 9 1 j l v s V C F Q M ].].].",
"].].]...^ Q F X.Q Q 9 f e 5 > e 6 e 6 i s s i b 6 7 3 5 R i Z Z T Z N - 9 6 i 6 u 9 i f f s 7 6 7 i 7 2 C f v W Z V R Z V ].].].",
"].].].! Q F ^ G ../ j h P ( ( ~ ( ) ( ) :.( Y Y ( ~ ( T N i M V N ^ ^ 1 h m N E Y I Y K ( K I J I J J E m C i T T C ^ N l ].].].",
"].].].R Q T X.Q X.X...*.+.o.+.;.;.&.+.*.+.*.q.y.e.;.q.*.4.*.o.*.%.1.#.+.*.#.#.X.#.+.#.X.+.&.+.! X. . .X.S Q Q C N Z Z C k ].].].",
"].].].V ! C X.! / T ! X.*.+.o.&.o.X.X.X.o.+.q.q.&.*.*.*.*.%.X.o.o.+./ o.X./ / o.o.o.+.*. . ./ X.! Q ! W R T g C N Z Z V M ].].].",
"].].].X.! C ! T / ..! / / ! ! X.X./ / ! X.X.X.X.X.X.*.X./ w.o.o.%.*./ +.X.o.X./ X.X.*.! X. .! !  .Q  .! X.| F l N T T N C ].].].",
"].].].R / R R ~ T ! ~ ` $.X./ o./ X./ $.*.$.! / X.! $./ $.X.%.X.*./ X.%.X.X.$.X./ $.$./ X.X.o.X.X.X.$.! X.! T C V T N M N ].].].",
"].].].~ ^ E T L E R ! / / ` / %.o.$.*.$.$.$.%.*.$.*.*.%.*.6.w.$.%.X.%.%.X.$./ $.$.$.%.%.%.%.%.$.$.%.X.$.X.X.R Z T T C l h ].].].",
"].].].].].].].].].].].].].].].].].].].].].].].].].].].].].].].].].].].].].].].].].].].].].].].].].].].].].].].].].].].].].].].]."
};
