/* XPM */
static char *result[] = {
/* columns rows colors chars-per-pixel */
"64 64 88 1 ",
"  c #6E5967",
". c #67586B",
"X c #6C5A6D",
"o c #735C6A",
"O c #7D5F6C",
"+ c #735F70",
"@ c #7E616D",
"# c #716070",
"$ c #7B6473",
"% c #815F6E",
"& c #82636E",
"* c #88626F",
"= c #836671",
"- c #8C6471",
"; c #846972",
": c #8C6D74",
"> c #8D6878",
", c #926673",
"< c #986775",
"1 c #946A75",
"2 c #9B6A76",
"3 c #9D6D7C",
"4 c #877077",
"5 c #8E7076",
"6 c #877179",
"7 c #8C747A",
"8 c #937177",
"9 c #96757A",
"0 c #99767B",
"q c #91787C",
"w c #9A7A7D",
"e c #A16C77",
"r c #A46D78",
"t c #A96F7A",
"y c #A3737B",
"u c #AD717B",
"i c #A27C7F",
"p c #AC7A7F",
"a c #B1767E",
"s c #B3797F",
"d c #947880",
"f c #9B7F82",
"g c #A47782",
"h c #A47E80",
"j c #AB7D81",
"k c #B57D81",
"l c #9D8284",
"z c #A48283",
"x c #AD8485",
"c c #AA8887",
"v c #AE858A",
"b c #A78988",
"n c #AB8B8A",
"m c #B48285",
"M c #B98486",
"N c #B28887",
"B c #B78788",
"V c #BB8688",
"C c #B38A8A",
"Z c #BD8C8B",
"A c #AA918F",
"S c #B4918E",
"D c #BD908D",
"F c #AD9694",
"G c #AF9B99",
"H c #B49491",
"J c #BC9691",
"K c #B69A95",
"L c #BB9B96",
"P c #B09D9B",
"I c #BB9E99",
"U c #B9A09A",
"Y c #BBA5A0",
"T c #BEAAA5",
"R c #C08F8D",
"E c #C1928F",
"W c #C39490",
"Q c #C59A95",
"! c #C89F97",
"~ c #C79E98",
"^ c #C6A39B",
"/ c #CAA49B",
"( c #CBA99E",
") c #CCABA3",
"_ c #CDB0A6",
"` c #CFB8AF",
"' c #D1B6AB",
"] c #D4BCB2",
/* pixels */
".... .XXoXX+++++###############    .... ooXo##########XooX .....",
".    o*erttkmBBSCZZCCZZBCZZCCZj-      O1rrryxZZDZCCZMprrye,     ",
".    oeuuuukWWWWWWWWEWEEEEDEWDM5      *uuuusEEEWWWEWEZuutteo    ",
" oooo-tuuuuRWWWWWWWWMZMksssZEi=@  ##o%<uuuusEEEWWWWWEEuuatt,ooo ",
">2rrrttuuuuVWWWWWWWWR/W^//QEEDm:%<eerrtuuuusWWWWEWWWWDuuuutttee-",
"3tuuutuuuuuRWWWWWWWWEQWWQQWWWEE9*tuuuuatuuusWWWWWWWWERuuuuuuuuue",
"3ttuutuuuuuRWWWWWWWWEWWWWWWWWWE9,uutuutuuuusEWWWWWWWEZuuutuuuuur",
">rttttttttgkBDDDZDDDDDDDDDDDDDm:%etttttutttpMDDDDDDDZkttttttttr,",
"oO%%%O%%%%O&===@&;&;;;;;;;;;;;&@oO@O%%O%O%%@&;;&=&;;=@%%%%%%%%% ",
",eeeeeeeeepmNNy@1jNNJSJU^UUHNNNNueeeeeeeeeepNNx,@yNNNmuteeeeeeee",
"ruuuuutatsREWWZ&xEWWQWQQQWQWEWWWMuuuuuuuuaMREWEj=ZWWEERsutututuu",
"vZRZRZRRRRRWEED;xWWWWWWWWWWWWEWWRZRZRZRRZREEEEEx;EWWWWRRRRRRRRRR",
"SWWWWWWkkRMZ8;=oxWWWWWWWWWWWWWWWEEWWWWERsMRkWN;@;EEEWWWWWWWWRWWW",
"nWWWWW(E~(EECci@xWWWWWWWWWWWWWWWWEWWWW!~E//RWZx8=EWWWWWWWWWWRWWW",
"SWWWWWQWWQWWWWR&xEWEWWWWWWWWWWWWWWWWWWW!W!WWWWWj;WWWWWWWWWWWWWWW",
"SWWWWWWWWWEWWEm&yZWWWWWWWWWWWEWWWWWWWWWWWWWWWWRy&mEWWWWWWWWWWWWW",
"+>=====;$;;;;;@o@@;;;;;;;;;;;&;;;;;;;;&;;@;;;;&@ @;;&;;;;;;&;;;;",
">jxvHnHKY)TKCHKCxcxxxxxxxNxxxxy*&yxxSSCKUT_USnKSxxxxxxxxxxxxxxj1",
"vWWWQW~~((//EQQWEWWWWWEEWWWWEWE88EWWWQW^^/(/QW/WWWEWWWWWEWWWWWEm",
"SWWWWWWWWEEWEWWWEWWWWWEEWWWEEWE00EWWEEWWWWWWWWWWWWWWWWWWWWWWWWEZ",
"CWWWWWWWWWWWWWWWWWWWWWWWEEWEEEZ10EWWWEWWWWWWWWWWWWWWWWEWEEEEWEEx",
"SWWWWWWWWWWWWWWWEWWWWWZkZVRi5:;O0EWEWWWWWWWWWEWWWWWWWWRkmEmZ55:&",
"SEWWWWWWWEWWWWEWWWWWWWZV!EWLchi:0EWWWWWWWWWWWWEEWWWWWWEZE!D^Szhi",
"gDWWWWWWWWWWWWEEWWWWWEEE~WQ/QEZ:1ZWWWWWWWWWWWWWEWWWWEWWWQQW!!WEs",
"=>75:8555555555488555555555555-O@:8555558555558558555555:55555:&",
"dgfhpghwhiiiii2@-wiiczbnAFPPFnbiiwiiiiiiihiiiw0;o8iizcznnAPUGAnh",
"CWWWQWRRWWWWWWZ&pEEE/WQ//((_(/~WEWWWEEWWWWEEWWEp*MWWW^W///()(^^W",
"gMkkkMkkmVEWEEE;xWWWWWEWEWEEWEEWEEWWRmmZERVEC88:;WWWEEWWEEWWEWWW",
"gtuuuuuutaRRRWE;cEWWWWWWEWWWWWWWWWWWRRRZWWQ^Dzw:;EWWWWWWWWWWEWWW",
"rttuuuuutaaRWWE;xEWWWWWWWWWWWWWWWWWWEWQEWQ/QW!Rj;EWWWWWWWWWWWWWW",
"=-,2tuuuutuRWWW&xEEWWWWWWWWWWWWWWWWWWWEWWWWWWWEx;WWWWWWWWEWWWWWW",
".X %<uuuuuuMRWM*pDWWWEWWWEWWWWWWWWWWWWWWWWWWWWRi@MWWWWWWWWWWWWWW",
"    &--,-,-190:@&00000ww0w00009900000w000000008&@:00000000000000",
";9099lllll00l089099098099999991@@1999wlllzf9wl0080088,*,,*%     ",
"hEWWE!////WW!QWWEEWWWWEWWWWWWWR11ZEWWQ//(//WW^EWWWEEEMuuuu1     ",
"SWWWWWWWWWWWWEWWWEEEZRVMMMMZWNw;0EWWWWWWWEEWWWEWWWWWRRuuuur%o   ",
"nWWWWWWWWWWWWWWWWWWWVWRVZZMZWx5@0WWWWWWWWWWWWWWWWWEWWEuuuut<***O",
"CWWWWWWWWWWWWWWWWWWWE/Q///^WWWZ10WWWWWWWWWWWWWWWWWWWEZauuuuuaut<",
"CWWWWWWWWWWWWWWWWWEWWEWWWWEEWWW90WWWWWWWWWWWWWEWWWWWERauuuuuuuae",
"vWWWWWWWWWWWWWWWWWWWWWWWWWWWWER18ZWWWWWWWWWWWEEEWWWWEZtuuuuuutte",
">fhhhhhhihhihhihjhihhhhhhhhhhh0&&0hhizihhhhhhhhihhiji8<<<<<<<<<*",
"6qq>:4::555::5* @:5555qqq9q5:55:5qq8515:5::5:4:&o&5555**%%-%*%%*",
"I)/WWWWWEEWWEWM&yZWW/Q//(((QWWWW~((~WWEEEEEEEWRy&MWWEEMauuuauuuu",
"SWWWWWWZZRREExx@xWWWEWWWWWWWWWWWEWWWWWWEZREZEDp0&EWWWEEVssssssss",
"CWWWWWQMMWMRW9&#xWWWWWWWWWWWWWWWEWWWWWWEMZEMEB:@;EWWWWWWWWWWWWWW",
"SWWWWW/W/(QWWWM=xWWWWWWWWWWWWWWWWWWWWW~/W(/WWERi;EWWWWWWWWWWWWWW",
"SWWWWWWWWWWWWWE;xWWWWWWWWWWWWEWWWWWEWWWWEWWWWWWx;EWWWWWWWWWWWWEW",
"nWWWWWWWWWWWWWZ=jEWWWWWEWWWWWWWEWWWWWWWWWWWWWWEx=ZWWWWWWWWWWWWWW",
"gvvxxxxxxxvxxxyo,jxxxxxxxxxxxNxmxxxxxxxxxxxxxxj,@exxxxxxxxxxxxxx",
"$$;;4=447777;::;;;;;;;;;;;;;;;&#@=;;4;444777;;44==;;;;;;;;;;;;;@",
"gDEW/Q/)`]])W()WEEWEWEWDEWWEEEM:*MEEQ/Q(_]]'/Q(/EEEEEWEEEEWEEEDp",
"CWWWWWWWWWWWWWWWWWWWWWWWWWWWWWE99WWWEEWWWQWWWWQWWWWWWWWWWWWWWEEZ",
"SWWWWWWWWWWWWWWWWWWWWWWEWWWWWWE90WWWWWWWWWWWWWWWWWWWWWEWWEWWWWWN",
"AWWWWWWWWWWWWWWWWWWWWEEREDDZNNj;0WWWWWWWWWWWWWWWWWWWWWEEEEEDNNNi",
"SWWWWWWWWWWWWWWWWWWWWWMsZMRh;;;@9WWWWWWWWWWWWWWWWWWWWWDsmEmD5;;=",
"vEWWWWWWWWWWWWWWWWEWWWEE/Q//QDZ89EWWWWWWWWWWWWWWWWWWWWEEW/W(^EZx",
"8NNNBBCBCCNBNNBNNCNNNCNNCCCCNNp&*jNNNNNBNNNNZNNNNNCNNBCCNNCCCNN0",
"$;;;;;;&;;;;;;@@@;;;;;;4444454;=@;;;;;;;;;;;;;;@@&;;;:;;454444;&",
"nZZDDZZZZDDDDDp@2VDD^W^^^_'`(^QZDDDDZDDDDZZRZDB2@pDZJ^E(^('`_(^D",
"NRDZDZRRZDEEEED;xEEWWWEEDWJWWJRREEEEEZREWEEEDCNi&EWEWWEWDEDWWDEE",
"rtukuaauakREEWE;xWWWEEMupuuauuauMWWWZssMEZVWx&;@;EWWEERsauuapuau",
"gtttuutuuasEWWE;xWWWWMsuuuuuuuuuMWWWEQ!EE^(/Q^M0;EWWERsauuuuuuuu",
"<rrtttuuutaZWEE;xEWWWkuuuuuutreemEWWWWWWWWWQWWEx;EWWERuuuuuuutrr",
"XoO,tutuuauZWEE;mWWWWsuuuuuu2&OO0WWWWWWWWWWWWWEx;DWWEZuuuuuur-@o"
};
