/* XPM */
static char *result[] = {
/* columns rows colors chars-per-pixel */
"64 64 85 1 ",
"  c #282828",
". c #282829",
"X c #292829",
"o c #29292A",
"O c #2A292C",
"+ c #2C2B2F",
"@ c #2D2B30",
"# c #2D2B31",
"$ c #2E2C34",
"% c #2F2D35",
"& c #302D37",
"* c #312E38",
"= c #312E39",
"- c #322F3B",
"; c #363140",
": c #363141",
"> c #373242",
", c #383244",
"< c #393346",
"1 c #373946",
"2 c #3A3448",
"3 c #3A3449",
"4 c #3D364E",
"5 c #3F3751",
"6 c #3F3852",
"7 c #3F3853",
"8 c #423C56",
"9 c #413F5C",
"0 c #47475F",
"q c #464D67",
"w c #484A61",
"e c #43446B",
"r c #4C5369",
"t c #48536D",
"y c #464C7C",
"u c #49577F",
"i c #515D71",
"p c #576A7D",
"a c #4D5F86",
"s c #495793",
"d c #506B86",
"f c #51738B",
"g c #607D8D",
"h c #4C61A8",
"j c #506DC0",
"k c #57849E",
"l c #5A8DA7",
"z c #5F9CB7",
"x c #628ABC",
"c c #609EB9",
"v c #7BB5BD",
"b c #5680C4",
"n c #5988C6",
"m c #5E91C9",
"M c #6198CD",
"N c #639FCE",
"B c #699BCE",
"V c #66B2CD",
"C c #76B1C6",
"Z c #6DA7D1",
"A c #65ABD1",
"S c #66AFD1",
"D c #6FACD2",
"F c #6EACD3",
"G c #67B2D2",
"H c #67B4D2",
"J c #68B8D3",
"K c #71BDD6",
"L c #73C3D8",
"P c #7AC0D9",
"I c #7DC5DB",
"U c #80C0C6",
"Y c #82C3C9",
"T c #83C9DC",
"R c #80D0DD",
"E c #86D3DF",
"W c #85D7DF",
"Q c #89DBE1",
"! c #8CDBE1",
"~ c #8ADCE1",
"^ c #8DDEE2",
"/ c #8DDFE2",
"( c #8EE0E3",
") c #90E2E4",
"_ c #91E3E4",
/* pixels */
"                                                                ",
"                                                                ",
"                                                                ",
"                                                                ",
"                                                                ",
"                                                                ",
"                                                                ",
"                                                                ",
"                                                                ",
"             .5555555555555555555555555555555553                ",
"             .5555555555555555555555555555555553                ",
"             .5555555555555555555555555555555553                ",
"             .5555555555555555555555555555555553                ",
"             .5555555555555555555555555555555553                ",
"         >5555555unnnn________^JJJJJJJJ________U5555            ",
"         >5555555unnnn________^JJJJJJJJ________U5555            ",
"         >5555555unnnn________^JJJJJJJJ________U5555            ",
"         >5555555unnnn________^JJJJJJJJ________U5555            ",
"     OOOO,5555999ammmm____(///QJJJJJJJJ////)___Y0000OOOOo       ",
"     555555557nnnD________LJJJJJJJJJJJJJJJJ~________5555-       ",
"     555555557nnnD________LJJJJJJJJJJJJJJJJ~________5555-       ",
"     555555557nnnD________LJJJJJJJJJJJJJJJJ~________5555-       ",
"     555555557nnnD________LJJJJJJJJJJJJJJJJ~________5555-       ",
"     555555557bbbZ________KSSSSSSSSSSSSSSSSRWWWWWWWW5555-       ",
"     555555557jjjB________FMMMMMMMMMMMMMMMMGJJJJJJJJ5555-       ",
"     555555557jjjB________FMMMMMMMMMMMMMMMMGJJJJJJJJ5555-       ",
"     555555557jjjB________FMMMMMMMMMMMMMMMMGJJJJJJJJ5555-       ",
"     555555557jjjB________FMMMMMMMMMMMMMMMMGJJJJJJJJ5555-       ",
"     555555557jjjB________FMMMMMMMMMMMMMMMMGJJJJJJJJ5555-       ",
"     555555557jjjB________FMMMMMMMMMMMMMMMMGJJJJJJJJ5555-       ",
"     555555557jjjB________FMMMMMMMMMMMMMMMMGJJJJJJJJ5555-       ",
"     555555557jjjB________FMMMMMMMMMMMMMMMMGJJJJJJJJ5555-       ",
"     222245556hhhxTTTT____FMMMMMMMMMMMMNNNNHJJJVzzzz2222&       ",
"         >5555555yjjjj____FMMMMMMMMMMMMJJJJJJJJc5555            ",
"         >5555555yjjjj____FMMMMMMMMMMMMJJJJJJJJc5555            ",
"         >5555555yjjjj____FMMMMMMMMMMMMJJJJJJJJc5555            ",
"         >5555555yjjjj____FMMMMMMMMMMMMJJJJJJJJc5555            ",
"         *;;;:555essss____FMMMMMMMMMMMMJJJJlkkkf;;;;            ",
"             .55555555____FMMMMMMMMMMMMJJJJq5553                ",
"             .55555555____FMMMMMMMMMMMMJJJJq5553                ",
"             .55555555____FMMMMMMMMMMMMJJJJq5553                ",
"             .55555555____FMMMMMMMMMMMMJJJJq5553                ",
"              ===>5555ggggCIIIPMMMMAAAAdddd1===%                ",
"                 *55555555v___!MMMMJJJJ5555+                    ",
"                 *55555555v___!MMMMJJJJ5555+                    ",
"                 *55555555v___!MMMMJJJJ5555+                    ",
"                 *55555555v___!MMMMJJJJ5555+                    ",
"                 O####5555riiipEEEEtttt####o                    ",
"                      55555555w____5555                         ",
"                      55555555w____5555                         ",
"                      55555555w____5555                         ",
"                      55555555w____5555                         ",
"                      XXXX<55568888XXXX                         ",
"                          <55555555                             ",
"                          <55555555                             ",
"                          <55555555                             ",
"                          @$$$$$$$$                             ",
"                                                                ",
"                                                                ",
"                                                                ",
"                                                                ",
"                                                                ",
"                                                                ",
"                                                                "
};
