/* XPM */
static char *result[] = {
/* columns rows colors chars-per-pixel */
"64 64 146 2 ",
"   c #D46406",
".  c #D96A08",
"X  c #DB7D03",
"o  c #DE740C",
"O  c #DF780E",
"+  c #E57607",
"@  c #E5790A",
"#  c #E87F0D",
"$  c #E17E12",
"%  c #DD8106",
"&  c #DE8409",
"*  c #DF880B",
"=  c #DF811B",
"-  c #E1860C",
";  c #EC810B",
":  c #E1890E",
">  c #E48315",
",  c #E48D12",
"<  c #E68C1A",
"1  c #E88E1C",
"2  c #F28C11",
"3  c #E59115",
"4  c #E79319",
"5  c #E9951D",
"6  c #EB9A1D",
"7  c #F69313",
"8  c #F99615",
"9  c #F89C1C",
"0  c #EAA61A",
"q  c #DC9B2E",
"w  c #EA8C23",
"e  c #E59424",
"r  c #EB9621",
"t  c #EC9C22",
"y  c #EC912A",
"u  c #E79C2D",
"i  c #F39E24",
"p  c #DFA23C",
"a  c #EEA125",
"s  c #ECAC24",
"d  c #EEA32B",
"f  c #F1A326",
"g  c #F1A52A",
"h  c #F4AA2D",
"j  c #F8AF2F",
"k  c #EEB22E",
"l  c #F7B02E",
"z  c #F8B12F",
"x  c #EFA430",
"c  c #E7AD3F",
"v  c #E9AD3F",
"b  c #F3AC32",
"n  c #FAA832",
"m  c #F2AD3E",
"M  c #F8AA39",
"N  c #EEB231",
"B  c #F6B134",
"V  c #FAB434",
"C  c #FDB936",
"Z  c #F6B439",
"A  c #FDB53B",
"S  c #F1B93B",
"D  c #FEBC3C",
"F  c #FFC03E",
"G  c #E0A643",
"H  c #E8AE41",
"J  c #F2AC4F",
"K  c #EAB245",
"L  c #ECB64A",
"P  c #EEB94E",
"I  c #F2B344",
"U  c #FFB642",
"Y  c #F3BE45",
"T  c #FFB846",
"R  c #F2B74A",
"E  c #FFB949",
"W  c #E5B157",
"Q  c #EFB450",
"!  c #EFBC51",
"~  c #E6B45C",
"^  c #EFBE58",
"/  c #F0BE54",
"(  c #FFBE51",
")  c #E6B561",
"_  c #EDBD61",
"`  c #E9BD6B",
"'  c #EBBF71",
"]  c #FDC044",
"[  c #FEC24E",
"{  c #F2C155",
"}  c #F4C45C",
"|  c #FFC35C",
" . c #F7CA5D",
".. c #F3C764",
"X. c #FFC663",
"o. c #F6CA63",
"O. c #FACC66",
"+. c #FCCD6A",
"@. c #FBD26C",
"#. c #EDC274",
"$. c #EDC479",
"%. c #F2C972",
"&. c #FDCE70",
"*. c #F9CC7A",
"=. c #FDD573",
"-. c #FED975",
";. c #FED67B",
":. c #FFDC7B",
">. c #EECD89",
",. c #F1CD8B",
"<. c #F8CD88",
"1. c #FED385",
"2. c #FFDE84",
"3. c #FFD68A",
"4. c #FFDE8A",
"5. c #F2D193",
"6. c #FFE08C",
"7. c #FFE294",
"8. c #FFE399",
"9. c #EDD7A9",
"0. c #F7DBA4",
"q. c #F5D9AA",
"w. c #F8DEA9",
"e. c #EEDEBB",
"r. c #FFE2A6",
"t. c #FFE5AD",
"y. c #F6E0B6",
"u. c #FFE6B2",
"i. c #F1E0B8",
"p. c #FCE7BA",
"a. c #FDE9BC",
"s. c #EBDBC1",
"d. c #EDE0C6",
"f. c #F2E0C2",
"g. c #FEECC1",
"h. c #F0E3CB",
"j. c #F6EAD5",
"k. c #FBEDD6",
"l. c #FDF3D7",
"z. c #FDF3DA",
"x. c #EFEBE5",
"c. c #EEEEEE",
"v. c #FFF7EA",
"b. c #FDF8ED",
"n. c #F5F5F5",
"m. c #FFFFFF",
/* pixels */
"m.m.c.m.m.c.n.m.c.c.m.c.c.m.c.c.m.m.c.m.m.c.n.m.c.c.m.c.c.m.c.c.m.m.c.m.m.c.n.m.c.c.m.c.c.m.c.c.m.m.c.m.m.c.n.m.c.c.m.c.c.m.c.c.",
"m.m.c.m.m.c.n.m.c.c.m.c.c.m.c.c.m.m.c.m.m.c.n.m.c.c.m.c.c.m.c.c.m.m.c.m.m.c.n.m.c.c.m.c.c.m.c.c.m.m.c.m.m.c.n.m.c.c.m.c.c.m.c.c.",
"c.c.m.c.c.m.c.c.m.m.c.m.m.c.n.m.c.c.m.c.c.m.c.c.m.m.c.m.m.c.n.m.c.c.m.c.c.m.c.c.m.m.c.m.m.c.n.m.c.c.m.c.c.m.c.c.m.m.c.m.m.c.n.m.",
"m.m.c.m.m.c.n.m.c.c.m.c.c.m.c.c.m.m.c.m.m.c.n.m.c.c.m.c.c.m.c.c.m.m.c.m.m.c.n.m.c.c.m.c.c.m.c.c.m.m.c.m.m.c.n.m.c.c.m.c.c.m.c.c.",
"m.m.c.m.m.c.n.m.c.c.m.c.c.m.c.c.m.m.c.m.m.c.n.m.c.c.m.c.c.m.c.c.m.m.c.m.m.c.n.m.c.c.m.c.c.m.c.c.m.m.c.m.m.c.n.m.c.c.m.c.c.m.c.c.",
"c.c.m.c.c.m.c.c.m.m.c.m.m.c.n.m.c.c.m.c.c.m.c.c.m.) q q q q q q q q q q q m.c.c.m.m.c.m.m.c.n.m.c.c.m.c.c.m.c.c.m.m.c.m.m.c.n.m.",
"n.n.c.n.n.c.n.n.c.c.n.c.c.n.c.c.n.n.c.n.n.c.s.G G G p p p p ^ O.o.o...} ..{ { ^ ! e.n.c.c.n.c.c.n.n.c.n.n.c.c.n.c.c.n.c.c.n.c.c.",
"m.m.c.m.m.c.n.m.c.c.m.c.c.m.c.c.m.m.c.m.k.) ~ ~ ~ ~ W _ @.@.O.O.O.o. ...} } { { { ^ ! P c.m.c.c.m.m.c.m.m.c.n.m.c.c.m.c.c.m.c.c.",
"c.c.m.c.c.m.c.c.m.m.c.m.m.c.n.m.c.c.m.$.$.$.' ' #.%.=.@.@.@.@.O.o.o.o...} } } { ^ ! ! P L L n.m.c.c.m.c.c.m.c.c.m.m.c.m.m.c.n.m.",
"c.c.m.c.c.m.c.c.m.m.c.m.m.c.n.m.c.h.5.5.,.,.,.,.-.-.=.=.@.@.O.@.O.o...{ { } } { ^ ^ ! ! ! P L #.c.c.m.c.c.m.c.c.m.m.c.m.m.c.n.m.",
"m.m.c.m.m.c.n.m.c.c.m.c.c.m.c.c.w.w.w.0.0.0.2.:.-.=.=.=.@.@.e , * , 3 , 4 4 5 5   L ^ P P L L L K m.c.m.m.c.n.m.c.c.m.c.c.m.c.c.",
"c.c.m.c.c.m.c.c.m.m.c.m.m.c.n.g.g.g.a.a.p.:.:.-.-.-.=.;.* * * , < < 4 3 4 5 5 5 5 t . = ! P P L L K m.c.c.m.c.c.m.m.c.m.m.c.n.m.",
"c.c.m.c.c.m.c.c.m.m.c.m.m.c.r.r.t.t.t.u.:.:.:.:.-.-.& * * > , , < 4 4 4 4 e 5 6 e t e 6 o P Q L K K K c.c.m.c.c.m.m.c.m.m.c.n.m.",
"m.m.c.m.m.c.n.m.c.c.m.c.c.1.1.1.3.3.3.2.:.:.:.:.-.* * * - , * < * 4 4 4 5 5 5 e 6 t t t a o e L L K K K m.c.n.m.c.c.m.c.c.m.c.c.",
"c.c.n.c.c.n.c.c.n.n.c.n.j.X.X.X.+.+.:.2.2.:.:.O.& & * * , , , , 4 4 4 5 5 5 t 5 t t t a a a O $ L K K H K n.c.c.n.n.c.n.n.c.n.n.",
"c.c.m.c.c.m.c.c.m.m.c.m.A U T E E ;.2.2.2.:.L O & * * * , , < 3 4 4 5 5 5 6 t t t a a a a a a O < L K K H m.c.c.m.m.c.m.m.c.n.m.",
"m.m.c.m.m.c.n.m.c.c.m.n V V V n V 6.2.2.2.=.X % - - : : , 2 , 4 4 5 5 5 5 t 6 t a t t d d a a r $ K K K H H n.m.c.c.m.c.c.m.c.c.",
"m.m.c.m.m.c.n.m.c.c.k.V V A V V 6.2.2.:.:.X X - - : : , , 3 3 < *.8.8.8.8.8.4.a a a f a f d t t $ $ K K K H 5.m.c.c.m.c.c.m.c.c.",
"c.c.m.c.c.m.c.c.m.m.A A A A V 2.2.6.2.2.X X % - - : , , 3 - 8.8.8.8.8.8.8.7.7.7.a a a g f d a d u $ > K H H H c.m.m.c.m.m.c.n.m.",
"m.m.c.m.m.c.n.m.c.*.A A A V M 6.6.2.2.X X % % - : : , 3 y 8.8.8.8.8.7.8.8.7.7.7.f g f g g a f d a > > K K H H k.c.c.m.c.c.m.c.c.",
"m.m.c.m.m.c.n.m.c.A A M A A 6.6.4.2.2.X X - - - : : 3 *.8.8.8.7.8.d 6 a a m 7.f f f g g g a d a d t > > K K H c c.c.m.c.c.m.c.c.",
"c.c.m.c.c.m.c.c.v.A A A A A 6.6.6.4.X X - X - - : , J 7.8.8.7.6 6 6 a 6 a a a f g g g h g f d a d d > < K K H c m.m.c.m.m.c.n.m.",
"n.n.c.n.n.c.n.n.A A A A A 2.6.4.6.2.X X % & - - , + 8.8.7.%.6 6 6 t a 0 a f f g f g h f d d d d u t t > u K H H ` c.n.c.c.n.c.c.",
"m.m.c.m.m.c.n.m.U A U U U 4.7.6.4.X X % % & - , , 7.7.8.&.6 6 6 t t a t a g g f h h g h h g g d f d d > < H H H c c.m.c.c.m.c.c.",
"c.c.m.c.c.m.c.f.U U A U U 7.6.6.4.X X % & - - : w 7.7.7.6 6 6 6 a 0 f f f g g g h h h g g g g d d a d > 1 K H H c m.c.m.m.c.n.m.",
"c.c.m.c.c.m.c.A A U U A 4.6.6.6.X X % % & - : 3 7.7.7.6 6 6 6 9 i i f f f g h h h h g h h g g d d d d < 1 K K H H m.c.m.m.c.n.m.",
"m.m.c.m.m.c.n.U A U U U 6.7.7.6.X X % % - : : + 7.7.7.6 6 6 a 6 a a f s f h h -.h h h h g g d d d d d e 1 e K H c x.m.c.c.m.c.c.",
"c.c.m.c.c.m.c.U U U U U 7.7.7.6.X X & & : : : 6.7.6.3 6 6 0 9 a f f g g f 6.6.6.j h h h b d h d d d d u 1 1 K K H ,.c.m.m.c.n.m.",
"c.c.m.c.c.m.c.U U U U U 7.7.7.4.X % & & : : , 7.7.6.6 6 6 9 a f f g 2 6.6.6.6.6.;.h b h h d d h d d d d 1 4 K H H c c.m.m.c.n.m.",
"m.m.c.m.m.c.q.T U T T X.7.7.7.% % % * * : : : 6.6.7.6 t 6 a f f 2 6.6.6.6.6.2.6.h j h h b b h d d d d d 1 1 K K H c m.c.c.m.c.c.",
"c.c.n.c.c.n.E T T U U r.7.7.7.X % % * * : : + 7.7.=.6 0 a f m 6.6.6.6.6.6.4.j j z j b h h h h d x x d x 1 r K K K c c.n.n.c.n.n.",
"c.c.m.c.c.m.E T T T E 4.7.7.6.X % % & * 3 3 + 6.6.I 6 6 ;.6.4.6.6.6.6.2.j j z z b z b b h x k h x x d d 5 r K K K H c.m.m.c.n.m.",
"m.m.c.m.m.c.E T T T T 8.7.7.7.% % * : : : 3 @ 6.6.a 6.6.6.6.6.6.6.O.j j j z z 7 2.2.b j h b g b d x x s r r L H K H m.c.c.m.c.c.",
"m.m.c.m.m.c.T T E E T 8.7.7.7.% % * : , 3 3 @ 6.6.6.6.6.6.6.6.z h h z z l h 2.2.2.2.b b b h b b x x x d r r L K K Q m.c.c.m.c.c.",
"c.c.m.c.c.m.E E E T E 8.7.7.7.% * - : , , @ 6.6.6.6.6.6.6.f f l j l l @.2.2.2.2.2.2.b j b b h d x b x t r r L K K y.c.m.m.c.n.m.",
"m.m.c.m.m.c.E E E E E 8.8.7.7.& * : : , 3 6.6.6.6.6.6.f s f h h f 6.:.6.6.4.2.2.@.B B b b b b b b x x t t v L L K c.m.c.c.m.c.c.",
"m.m.c.m.m.c.<.E E E E 8.8.7.7.& * : , , 4 ; 6.6.6.6.0 f g s 8 :.:.6.6.:.2.6.D B B B b B b b b b b x x t t P L K K c.m.c.c.m.c.c.",
"c.c.m.c.c.m.x.E E E E 8.8.8.7.* * : , 3 4 : I 2.6.:.f f 2 :.6.6.6.6.:.6.V V V V B V B B b b b b x k g t r P L L K m.c.m.m.c.n.m.",
"n.n.c.n.n.c.c.( ( ( ( 4.8.8.7.* * , 3 3 4 5 6 # 6.6.6.6.6.6.6.:.:.6.z C V V V B V b B f :.b b b b b d i i P L L L c.n.c.c.n.c.c.",
"m.m.c.m.m.c.n.| | | ( | 8.8.7.Q * , 3 3 4 6 6 0 :.:.6.2.:.6.:.6.z z C C C C V V V V B =.:.2.o.b b x t u L Q P L d.c.m.c.c.m.c.c.",
"c.c.m.c.c.m.c.| X.| | | 8.8.8.7., 3 3 4 6 6 - :.6.6.:.6.:.O.z z C C C C C Z C Z B Z 7 :.:.:.b b b b i u P P P L m.m.c.m.m.c.n.m.",
"c.c.m.c.c.m.c.1.X.X.X.X.8.8.8.7.: 3 3 4 6 6 6 6.:.6.6.:.:.l z C C C C C C C Z C V 9 :.:.:.} b B b u i i / P P P m.m.c.m.m.c.n.m.",
"m.m.c.m.m.c.n.m.+.+.+.+.r.8.8.7.3 3 6 4 6 6 0 2.:.2 2.2.6.:.V C C C C C C C C C 8 :.:.:.:.B Z b b i t / P P P b.c.c.m.c.c.m.c.c.",
"c.c.m.c.c.m.c.c.&.&.&.&.@.8.8.7.6.3 3 0 6 6 a a g g M :.:.:.:.[ C F C C C C V -.:.:.:.:.B B m b i g f / ! / P c.m.m.c.m.m.c.n.m.",
"c.c.m.c.c.m.c.c.z.=.=.&.=.8.8.8.8.3 6 6 t 6 a a a h h R :.6.:.:.-.-.@.[ @.:.:.:.-.-.:.B Z B Z B i g ^ / ^ P >.c.m.m.c.m.m.c.n.m.",
"m.m.c.m.m.c.n.m.c.;.;.;.;.8.8.8.8.6.4 5 t a a s g h j z 8 :.:.:.:.-.:.:.:.-.:.:.:.-.A V Z Z M i u g } / ! ! n.m.c.c.m.c.c.m.c.c.",
"c.c.n.c.c.n.c.c.n.p.2.1.:.:.8.8.7.7.6 6 t a a h s j z z V C @.:.:.-.-.:.:.:.-.-.C C Z S Z B x i i } ^ { ^ j.c.c.n.n.c.n.n.c.n.n.",
"c.c.m.c.c.m.c.c.m.m.2.2.2.2.8.8.8.7.7.6 a a g s h h l z B V C D F -.:.-.-.] F C D S A Z Z Z g g } } } / ! m.c.c.m.m.c.m.m.c.n.m.",
"m.m.c.m.m.c.n.m.c.c.m.2.2.4.4.8.7.7.7.L a a a h h B l B V C C D D D D D D D D A A D A A Z f a ..} } ^ } m.c.n.m.c.c.m.c.c.m.c.c.",
"m.m.c.m.m.c.n.m.c.c.m.=.=.=.=.4.8.7.7.7.a s h h h l B B C C D D F F F D D D C D D C S A g f  . . .} } z.m.c.n.m.c.c.m.c.c.m.c.c.",
"c.c.m.c.c.m.c.c.m.m.c.m.o.@.@.@.8.8.7.7.7.s h h l z B C C C D D D F D F D D D A Z D A f g o.o...} } } c.c.m.c.c.m.m.c.m.m.c.n.m.",
"m.m.c.m.m.c.n.m.c.c.m.c.c.}  . . .8.8.7.7.6.x h B B B C C D D F D F F F D F D D D g f f O.O.o.o.} } c.m.m.c.n.m.c.c.m.c.c.m.c.c.",
"m.m.c.m.m.c.n.m.c.c.m.c.c.m.{ { { { 7.7.6.7.7.;.B B C C S F F F F F F F D D D D i g f +.o.o.o.o.o.m.c.m.m.c.n.m.c.c.m.c.c.m.c.c.",
"c.c.m.c.c.m.c.c.m.m.c.m.m.c.n.F Y ] ] 8.7.7.6.6.6.B C C D D D F F D D F F D f f g @.@.+.@.O.o.o.c.c.m.c.c.m.c.c.m.m.c.m.m.c.n.m.",
"n.n.c.n.n.c.n.n.c.c.n.c.c.n.c.c...N S S 7.7.6.6.6.6.6.[ D D F F F F F 9 9 f Z =.@.=.@.+.O.O.i.c.n.n.c.n.n.c.c.n.c.c.n.c.c.n.c.c.",
"m.m.c.m.m.c.n.m.c.c.m.c.c.m.c.c.m.m.k k k 7.7.7.6.6.6.6.6.6.:.-.O.O.=.:.:.:.:.-.=.@.@.@.+.m.c.c.m.m.c.m.m.c.n.m.c.c.m.c.c.m.c.c.",
"c.c.m.c.c.m.c.c.m.m.c.m.m.c.n.m.c.c.m.c.s 0 s 6.6.6.6.6.2.2.2.2.:.:.:.:.:.:.-.-.@.@.@.z.m.c.n.m.c.c.m.c.c.m.c.c.m.m.c.m.m.c.n.m.",
"c.c.m.c.c.m.c.c.m.m.c.m.m.c.n.m.c.c.m.c.c.m.9.0 k 6.6.6.6.2.2.:.6.:.:.:.:.:.-.-.=.l.c.m.m.c.n.m.c.c.m.c.c.m.c.c.m.m.c.m.m.c.n.m.",
"m.m.c.m.m.c.n.m.c.c.m.c.c.m.c.c.m.m.c.m.m.c.n.m.c.c.m.;.2.6.2.2.:.:.:.:.:.-.7.m.c.c.m.c.c.m.c.c.m.m.c.m.m.c.n.m.c.c.m.c.c.m.c.c.",
"c.c.m.c.c.m.c.c.m.m.c.m.m.c.n.m.c.c.m.c.c.m.c.c.m.m.c.m.m.c.n.m.c.c.m.c.c.m.c.c.m.m.c.m.m.c.n.m.c.c.m.c.c.m.c.c.m.m.c.m.m.c.n.m.",
"c.c.m.c.c.m.c.c.m.m.c.m.m.c.n.m.c.c.m.c.c.m.c.c.m.m.c.m.m.c.n.m.c.c.m.c.c.m.c.c.m.m.c.m.m.c.n.m.c.c.m.c.c.m.c.c.m.m.c.m.m.c.n.m.",
"m.m.c.m.m.c.n.m.c.c.m.c.c.m.c.c.m.m.c.m.m.c.n.m.c.c.m.c.c.m.c.c.m.m.c.m.m.c.n.m.c.c.m.c.c.m.c.c.m.m.c.m.m.c.n.m.c.c.m.c.c.m.c.c.",
"c.c.n.c.c.n.c.c.n.n.c.n.n.c.c.n.c.c.n.c.c.n.c.c.n.n.c.n.n.c.n.n.c.c.n.c.c.n.c.c.n.n.c.n.n.c.n.n.c.c.n.c.c.n.c.c.n.n.c.n.n.c.n.n.",
"c.c.m.c.c.m.c.c.m.m.c.m.m.c.n.m.c.c.m.c.c.m.c.c.m.m.c.m.m.c.n.m.c.c.m.c.c.m.c.c.m.m.c.m.m.c.n.m.c.c.m.c.c.m.c.c.m.m.c.m.m.c.n.m."
};
