/* XPM */
static char *result[] = {
/* columns rows colors chars-per-pixel */
"64 64 173 2 ",
"   c #3F3951",
".  c #433952",
"X  c #4C3A52",
"o  c #5C3756",
"O  c #533A52",
"+  c #5B3C52",
"@  c #623757",
"#  c #653D51",
"$  c #6B3C52",
"%  c #6A3758",
"&  c #6E3858",
"*  c #733C53",
"=  c #7B3B54",
"-  c #733958",
";  c #7C3B58",
":  c #4D4155",
">  c #534154",
",  c #5E4153",
"<  c #554C5B",
"1  c #624454",
"2  c #6B4453",
"3  c #654956",
"4  c #6F4855",
"5  c #674A59",
"6  c #6B4C59",
"7  c #744352",
"8  c #7A4352",
"9  c #744B56",
"0  c #7C4A55",
"q  c #724E59",
"w  c #7D4F58",
"e  c #76515B",
"r  c #7A525C",
"t  c #564F60",
"y  c #755A60",
"u  c #7D5F62",
"i  c #833C54",
"p  c #8A3D54",
"a  c #843C58",
"s  c #933D54",
"d  c #9C3D54",
"f  c #A23F52",
"g  c #86404F",
"h  c #8C414F",
"j  c #9B424F",
"k  c #844552",
"l  c #8A4352",
"z  c #824D56",
"x  c #8C4A54",
"c  c #804C59",
"v  c #944252",
"b  c #9A4150",
"n  c #934D55",
"m  c #9E4B53",
"M  c #8C5156",
"N  c #83545A",
"B  c #8B565A",
"V  c #81585E",
"C  c #8E5A5F",
"Z  c #935257",
"A  c #995157",
"S  c #945559",
"D  c #9A5559",
"F  c #955B5C",
"G  c #9A5C5C",
"H  c #A7434F",
"J  c #AD444E",
"K  c #B0474F",
"L  c #A54151",
"P  c #A84150",
"I  c #A34D53",
"U  c #AF4E52",
"Y  c #A54858",
"T  c #AC4D58",
"R  c #B54F52",
"E  c #A45357",
"W  c #AA5356",
"Q  c #A4545A",
"!  c #AA5659",
"~  c #A45A5A",
"^  c #AB5A59",
"/  c #B45455",
"(  c #BA5454",
")  c #B3555A",
"_  c #B95758",
"`  c #B45C5A",
"'  c #BC5C5A",
"]  c #A5605C",
"[  c #A9635F",
"{  c #B5655D",
"}  c #BB635C",
"|  c #BE695F",
" . c #885E62",
".. c #9A5F60",
"X. c #856565",
"o. c #816B69",
"O. c #906263",
"+. c #9A6061",
"@. c #8A716D",
"#. c #90766F",
"$. c #867876",
"%. c #907770",
"&. c #907972",
"*. c #997E73",
"=. c #A36362",
"-. c #AE6662",
";. c #B26A65",
":. c #BA6B61",
">. c #BD7369",
",. c #C15C57",
"<. c #C25E5A",
"1. c #C3645C",
"2. c #C6695F",
"3. c #C96A5E",
"4. c #D6685E",
"5. c #D96A5F",
"6. c #C16E63",
"7. c #CA6E61",
"8. c #D96D61",
"9. c #C27167",
"0. c #CD7363",
"q. c #C57369",
"w. c #CD7669",
"e. c #CB7C6D",
"r. c #D27566",
"t. c #DD7466",
"y. c #D27D6D",
"u. c #DE7D6C",
"i. c #E27F6D",
"p. c #998175",
"a. c #CF806F",
"s. c #D1806F",
"d. c #C48F78",
"f. c #D68371",
"g. c #D38B75",
"h. c #D6947A",
"j. c #D7987C",
"k. c #D99D7F",
"l. c #E3816E",
"z. c #E48570",
"x. c #E68C74",
"c. c #E88F76",
"v. c #E79077",
"b. c #E89177",
"n. c #E99478",
"m. c #EC9C7C",
"M. c #EDA17F",
"N. c #DBA483",
"B. c #DEAA86",
"V. c #DFB58D",
"C. c #EFA582",
"Z. c #EFA883",
"A. c #F1AE87",
"S. c #E1B58D",
"D. c #E2B98F",
"F. c #F3B38A",
"G. c #F6BB8E",
"H. c #E3BD94",
"J. c #F7BF90",
"K. c #F8BF90",
"L. c #E4C097",
"P. c #E4C49C",
"I. c #FAC694",
"U. c #FBCA97",
"Y. c #FCCE9A",
"T. c #FCD19E",
"R. c #E5CCA4",
"E. c #E5CFA9",
"W. c #E4D2AD",
"Q. c #FCD2A0",
"!. c #E4D5B4",
"~. c #E5D8B7",
"^. c #E5D8B9",
/* pixels */
"S.R.~.W.R.H.N.r O.g.B.S.L.W.~.R.P.L.W.~.R.H.P.H.D.k.y.6 +.g.B.E.!.P.H.R.S.S.g.;.5 9.j.S.D.R.^.^.!.E.R.P.N.g.C u N.H.R.W.~.R.S.d.",
"U.T.T.T.T.Y.I.o.=.Z.U.U.Y.T.T.T.T.Y.T.T.T.U.T.T.U.I.b.6 -.A.U.T.T.Y.Y.Y.Y.I.G.q.5 f.J.U.U.Y.Q.Q.Y.Y.T.Y.I.Z...@.I.Y.T.T.T.T.U.S.",
"U.Y.U.U.U.U.U.o.=.Z.U.U.U.Y.U.U.U.U.U.U.U.U.U.U.U.I.b.q -.Z.U.U.U.U.U.U.U.I.G.9.6 f.K.I.U.U.U.U.U.U.U.U.U.Z.+.@.U.U.U.U.U.U.U.S.",
"U.U.U.U.U.U.U.o.=.n.F.U.U.U.U.U.U.U.U.U.U.U.U.U.I.A.x.6 -.m.F.U.U.Y.U.U.U.J.C.9.5 y.Z.I.Y.U.U.U.U.U.U.U.F.n.+.@.U.U.U.U.U.U.U.S.",
"I.U.U.U.U.U.F.u =.l.m.F.U.I.U.I.U.I.I.I.I.I.I.I.A.c.l.6 -.z.m.G.I.I.U.I.J.m.z.9.5 y.x.Z.I.I.U.I.U.I.U.F.n.z.+.X.F.U.U.U.U.U.I.j.",
"C.I.I.U.U.A.b.r =.l.l.z.b.c.c.c.b.b.c.c.v.c.c.c.z.l.i.6 -.i.l.x.c.c.c.b.x.z.l.9.5 r.i.z.x.c.c.c.c.c.b.z.l.i.+.V b.F.U.I.U.I.C.y.",
"z.x.b.c.b.z.l.r A t.i.u.u.u.u.u.u.u.u.u.u.u.u.u.i.u.4.2 Q t.u.u.u.u.i.u.u.u.t.` 1 1.t.u.u.u.u.u.i.u.u.u.u.t.n r l.z.n.c.v.c.z.w.",
"i.i.i.i.i.i.5.9 O 1 5 5 5 5 5 5 5 5 5 5 5 5 3 2 3 6 1 X O 1 5 5 5 5 5 5 5 5 5 + X 1 5 5 5 5 5 1 6 3 5 5 5 1 O 0 8.l.i.u.i.l.t.1.",
"6 6 6 6 6 6 2 X                       .           . . .       .         .     .   .     .                   . X 2 6 6 6 6 6 6 1 ",
";.;.;.;.;.! ,         .     . X = i p p h i - X $ = h h p i = O o ; p g p p = $ X & i p h h p * X     .         1 ! ;.;.;.;.;.=.",
"A.A.m.l.i.t.6 . o = l h p = @ O d H J J J H s O i f J J K f d $ $ d H J K K f p O s f J K J H d O @ i g p = o   9 i.i.l.m.A.A.g.",
"U.U.K.m.l.l.6   X # # # # # O X # # # 2 # # + X + # $ # # $ 1 X O # # $ # # # + X # # # # # # , X O # # # # X   r l.l.m.K.U.U.B.",
"U.U.U.K.c.i.q       o 0 F G F F G S 7 O g F F G S g O 7 M G G G F F M $ O k G F S Z 8 O 7 Z G G F F Z = O       r i.c.K.U.U.Y.P.",
"Y.U.U.I.v.u.e       & ) 0.0.0.0.0.7.~ , { 7.0.0.0.1., S 7.0.0.0.0.0.7.A 2 1.0.0.0.7.{ , ^ 7.0.0.0.0.7.W $       r l.b.U.Y.U.T.R.",
"Y.U.U.U.n.l.q       $ ) 0.0.0.0.0.3.E , ^ 7.0.0.0.' , A 3.0.0.0.0.0.3.Z 1 } 0.0.0.7.! , W 7.0.0.r.0.3.T $ .     r i.n.U.U.U.Y.P.",
"T.U.U.U.v.l.q       O 4 B N B N N w 7 X 7 N N N N 8 X # 0 N N N N N w # X 8 N N B N 7 X 7 w N N N N c $ X       r i.b.U.U.U.Y.L.",
"T.Y.U.U.b.i.q   O $ = 8 0 z # X 8 N B N N N N 7 X # z N N N 0 + + 0 N N N N z # X 7 z N N N N 7 X # 8 8 * * O   r i.n.U.U.U.Q.!.",
"T.U.U.U.b.i.q   = f J ( 3.3.n 1 } 0.0.0.0.0.7.} , E 3.0.0.r.1.0 0 1.0.0.0.0.7.E , ` 0.0.r.0.0.<.1 n ,.( J f *   r i.b.U.U.U.T.!.",
"Y.U.U.U.v.l.q   * H P ( 3.7.S , 1.0.0.0.0.0.7.} , Q 7.0.0.0.2.0 0 2.0.0.0.r.0.~ , ` 0.0.0.0.0.1.1 A 1.( H P *   r i.n.U.U.U.Y.P.",
"U.U.U.G.c.u.e   o = l k Z M 7 O g F G F G F F 8 O 7 Z F G G M + , x G F G F Z 7 O 8 F G F F F k O $ x k l * o   r i.c.G.U.U.U.D.",
"U.U.K.m.l.i.e       X # 4 9 9 q 4 2 O . . o # # # + X   O # # # 2 # # X         .     . o 2 q q q 9 7 # X       w i.z.m.J.U.I.B.",
"A.A.m.z.l.t.4       $ T 3.0.0.0.7._ p X . $ p h p * X   o i h g i h = #               X p ' 7.0.0.0.3.Y #       9 i.l.z.m.F.F.g.",
";.;.;.;.;.! ,       * / 7.0.0.0.0.} v .               . .   .       .                 . v 1.0.0.0.0.7.W $       # ! ;.;.;.;.;.=.",
"6 4 6 6 5 1 X       o k ~ [ [ ] ~ n $ .     . , 6 6 6 6 6 1 X   X 1 3 1 3 3 1 + .   . . $ n ] [ [ [ ~ l o       X 1 6 6 6 6 5 5 ",
"v.v.x.i.i.5.7   X O + + 1 , > X + , + + X . X ' t.i.i.i.i.8.0   8 1.r.r.r.r.3.E X . X + + , , , . + , + + O X   0 5.i.i.x.v.c.e.",
"I.I.Z.c.l.i.q   $ f J R 1.1.x , ( ( J H p X > q.l.i.z.c.v.v. .. O.x.x.x.l.l.i.9.X X p P J P 1._ , x ( R J d $   r i.l.c.A.I.I.N.",
"U.U.U.A.z.l.6   = H J ( 7.7.G 1 1.1.K J s X O q.u.z.C.J.U.U.@.  *.I.I.I.M.l.l.9.X X b J J J 3.3.2 F 3.( J H =   r i.x.A.U.U.U.D.",
"U.U.U.I.c.f.e   # p j I ^ ! 8 , m I j v = . : q.i.C.J.I.U.U.&.  *.U.U.U.I.m.l.9.X X * v b m ^ A + 8 I m j p @   r i.b.U.U.U.Y.E.",
"T.U.U.U.v.l.e   . . O + 3 1 , , , , O X . . > q.z.G.U.U.U.U.&.  p.U.U.U.U.F.l.q.:   . X O , 1 1 , , , , X . .   r i.n.U.U.U.Q.^.",
"U.U.U.I.v.l.q     . @ Q 9.:.6.9.| W ; .     : 6.i.G.U.T.Q.T.&.  p.Q.Q.U.U.F.l.6.X     . i W | 6.| 9.} m #       r u.n.U.U.U.Q.^.",
"T.U.U.U.b.i.q       * _ 0.0.0.0.0.1.s .     X ! q.N.S.P.!.W.$.  p.!.!.P.V.N.0.W . .   X v 1.0.0.0.0.3./ &       r i.n.U.U.U.Q.E.",
"T.U.U.I.b.l.q       @ A :.:.:.:.{ W ; .     . X O < < < t t :   : < < < < < X X .     . ; W ;.:.:.:.` v o       r i.n.U.U.U.U.H.",
"Y.U.U.U.b.l.e   . X O , , 3 , > , + O X X . . X : < < < t < :   : t t < < < X X     . X + , 1 , > , , , O X .   r i.n.U.U.U.T.P.",
"Y.U.U.I.b.l.6   $ s j I { ] g , U j j d = . X ! q.N.V.P.~.W.$.  p.!.!.P.V.N.0.D X X = b j W { E + g I I j s @ . r i.n.U.U.U.T.R.",
"T.U.U.I.b.l.6   = J J ( 3.7.G 3 1.K H J v X O 9.l.G.U.T.Q.Q.&.  p.Q.Q.T.I.G.f.6.: X b P K 1.7.3.1 D 3.( J H =   r i.b.U.U.Y.Y.L.",
"T.U.U.I.v.l.e   $ s H R } } k , / H H f a X : q.l.G.U.U.U.U.%.  $.U.U.U.U.G.l.6.X X a L J _ 2.^ , x / U H s %   r i.n.I.U.U.T.P.",
"T.U.U.I.b.l.q   X O O + 1 1 > : , , + O X . : q.l.m.I.U.U.U.%.  *.U.U.I.K.m.l.q.X   X O + , , , X > , + + O . . w l.n.I.U.U.U.H.",
"Y.U.I.A.z.i.q     @ + 7 ~ { { { [ m * .     > q.i.z.M.G.I.U.#.  *.I.U.J.m.z.i.9.:     . * A { { { { ^ l o       e l.x.A.U.U.U.S.",
"I.I.A.v.l.i.q   . * * 0 7.0.0.0.0.1.v .     > q.i.i.z.c.c.c.X.  O.n.v.c.z.i.i.9.X   . X v 1.0.0.0.0.6./ 2       r l.l.v.A.I.I.k.",
"v.v.x.l.u.4.7     $ $ 0 1.0.0.0.3.( i .     X ' t.i.u.i.i.5.z   z 8.i.i.i.i.t.' X     . p ` 7.0.0.0.1.I #       7 4.u.l.x.v.v.a.",
"6 6 6 6 6 2 X   . X X O 1 3 3 3 3 , O       . , 2 6 6 6 6 2 X . O 2 6 6 3 4 6 , .     . + , 1 3 3 3 , + .       X 2 6 6 6 6 6 3 ",
";.;.;.;.;.! ,   @ i p h D D 7                                   .                 . $ h h n ~ x + * n j p i o   2 ! ;.;.;.;.;.=.",
"A.F.m.l.l.t.4   = f K ( 7.7.D                                                     X d H K 1.0.2., D 3.( K f * . 9 t.l.l.m.A.A.g.",
"I.U.G.m.l.l.q   * f K R 3.3.n                     # i p g g = O O * g l g g g i @ O s J K ' 3.' 1 n ,.R J f &   r l.z.M.G.U.I.V.",
"U.U.U.G.v.l.q   O # # 2 7 q ,         .         . O # # # # # X X @ # $ $ 2 2 # o X + $ 2 7 9 4 X + 2 2 $ # X   r i.b.G.U.U.U.D.",
"Y.U.U.U.v.l.q       O o , M B F F F M 7 O 8 M F F F k O 7 M F S F F S M $ X k F B F M 8 X 7 M F F F x 8 O       r l.n.U.U.U.T.P.",
"T.U.U.I.v.l.6 .     $ * 9 3.0.0.0.0.0.! 1 ^ 0.0.0.0.1.1 Z 3.0.0.0.0.0.7.A , 1.0.0.0.0.` 1 ! 3.0.0.0.3.U $       r l.n.U.U.U.T.!.",
"T.U.U.I.v.l.q     . $ * w 3.0.0.0.0.3.! , ^ 0.0.0.0.} 1 n 3.0.0.0.0.0.7.A 1 ' 7.0.0.0.` , E 7.0.0.0.3.U $       r i.n.U.U.U.T.!.",
"Y.U.U.U.b.i.q       O O + z B B B B N 7 X * N N B B 8 X 1 z B B B B B z 2 X 8 N B N B 7 X * N B B B z 7 O       r i.n.U.U.U.T.L.",
"Y.Y.U.I.v.l.q   O $ * 7 0 0 # X 7 r N N N w 7 X 2 0 w N N w 0 O > 0 w N N w w 2 X 7 w w z N r 7 X 1 7 7 * $ O   r i.n.U.U.U.T.L.",
"Y.U.U.U.v.l.e   * f K ( 3.3.Z 1 } 0.0.0.0.7.` , E 7.0.0.0.0.1.0 8 1.0.0.0.0.7.E , ` 0.0.0.0.0.' , n ,.( J f $   r i.b.U.U.U.U.P.",
"Y.U.U.G.x.l.6   = H J ( 3.3.A 1 1.0.0.0.0.7.} , ~ 0.0.0.0.0.3.0 0 2.0.0.0.0.7.! , } 0.0.0.0.0.| 1 A 1.( K H *   r i.x.G.U.U.U.D.",
"U.U.G.m.l.l.6 . o = h h Z Z $ + k G G G G F k O 8 S G G G G x # , n G G G ..F 8 X g F G G G G x O $ x h h = o   r i.l.M.I.I.I.B.",
"A.F.m.z.i.i.9       X + 1 # , # # # O .           . . X + # # 1 , # + O     .         . O # # # # 2 # + X       9 i.l.z.m.A.A.g.",
";.;.;.;.{ ! ,       + = h h h h l p $ .               # i h h h h h i #               . $ p h l h h h = O     . # ! ;.;.;.;.;.=.",
"3 6 6 6 6 6 2 X         .     .               .         .   .   .                           . .               X 2 6 6 6 6 6 6 1 ",
"i.u.i.i.i.l.5.9 + 1 6 3 5 5 5 5 3 5 5 5 3 1 X + 2 5 5 5 5 5 5 5 3 2 O X 2 6 3 6 3 5 5 5 5 5 5 5 5 6 6 6 5 1 O 0 5.l.i.i.i.i.t.1.",
"z.c.c.c.b.z.l.r n r.u.u.u.u.u.u.u.u.i.u.t.<.1 ' t.i.f.t.u.u.u.i.u.r.A 4 4.f.u.u.i.i.u.u.u.u.u.u.i.f.t.f.u.t.A r l.z.b.b.v.c.z.w.",
"C.I.U.U.U.A.b.r ] l.l.x.c.c.b.b.c.c.b.z.l.w.5 q.z.z.c.c.c.c.c.x.l.l.[ e i.l.z.v.c.c.b.b.c.c.c.c.c.c.v.z.l.i.+.V n.F.U.U.I.I.C.a.",
"I.U.U.U.U.U.F.u =.l.m.F.I.I.U.I.I.I.I.M.z.e.6 q.z.C.K.U.I.I.U.F.n.l.=.r l.c.A.I.I.I.U.U.I.U.I.I.I.I.U.F.n.l.+.X.F.U.U.U.U.U.I.k.",
"U.U.U.U.U.U.U.o.=.n.F.U.U.U.U.U.U.U.U.I.C.e.6 q.m.I.I.U.U.U.U.I.F.n.=.e z.A.U.U.U.U.U.U.U.U.U.U.U.U.U.U.F.n.+.@.U.U.U.U.U.U.U.V.",
"U.U.U.U.U.U.U.o.=.A.U.U.U.U.U.Y.U.U.U.U.G.f.5 q.G.U.U.U.Y.Y.U.Y.U.A.=.e n.U.U.U.U.U.U.U.U.U.U.U.U.U.Y.U.I.C.+.@.U.U.U.U.U.U.U.S.",
"U.T.T.T.T.U.U.o.=.Z.I.U.Y.T.Y.T.T.T.U.U.G.s.5 e.F.U.U.U.Y.Y.T.Y.U.A.=.e n.U.U.U.T.Y.T.T.T.U.Y.T.T.T.Y.U.U.C.G @.U.U.T.T.T.Y.U.V.",
"S.R.~.W.R.H.N.y F f.B.D.L.P.H.W.~.R.D.S.j.>.5 ;.h.S.S.R.H.P.!.R.N.g...6 s.k.D.H.P.H.R.~.E.L.R.E.~.W.L.S.N.g.C u N.L.R.W.~.R.S.d."
};
