/* XPM */
static char *result[] = {
/* columns rows colors chars-per-pixel */
"78 58 21 1 ",
"  c #3F3851",
". c #25667E",
"X c #E44B3B",
"o c #B9355C",
"O c #DA4949",
"+ c #E36254",
"@ c #F07860",
"# c #EF895A",
"$ c #CD8674",
"% c #F69972",
"& c #F6C27D",
"* c #5F7D93",
"= c #298A91",
"- c #768EA1",
"; c #8CA9B5",
": c #DEB19C",
"> c #ECD4BE",
", c #FFEFA9",
"< c #A5C2C7",
"1 c #F2F7F6",
"2 c None",
/* pixels */
"222222222222222222222222222222222222222222222222222222222222222222222222222222",
"222222222222222222222222222222222222222222222222222222222222222222222222222222",
"222222222222222222222222222222222222222222222222222222222222222222222222222222",
"222222222222222222222222222222222222222222222222222222222222222222222222222222",
"222222222222222222222222222222222222222222222222222222222222222222222222222222",
"222222222222222222222222222222222222222222222222222222222222222222222222222222",
"222222222222222222222222222222222222222222222222222222222222222222222222222222",
"222222222222222222222222222222222222222222222222222222222222222222222222222222",
"222222222222222222222222222222222222222222222222222222222222222222222222222222",
"222222222222222222222222222222222222222222222222222222222222222222222222222222",
"222222222222222222222222222222222222222222222222222222222222222222222222222222",
"222222222222222222222222222222222222222222222222222222222222222222222222222222",
"222222222222222222222222222222222222222222222222222222222222222222222222222222",
"222222222222222222222222222222222222222222222222222222222222222222222222222222",
"222222222222222222222222222222222222222222222222222222222222222222222222222222",
"222222222222222222222222222222222222222222222222222222222222222222222222222222",
"222222222222222222222222222222222222222222222222222222222222222222222222222222",
"222222222222222222222222222222222222222222222222222222222222222222222222222222",
"222222222222222222222222222222222222222222222222222222222222222222222222222222",
"222222222222222222222222222222222222222222222222222222222222222222222222222222",
"22222222222222222222222    22        2  22222222222222222222222222222222222222",
"2222222222222222222222 X#&#  #&&&,&&, ,& 2222222222222222222222222222222222222",
"2222222222222222222222 ##&&  &&&   &, ,, 2222222222222222222222222222222222222",
"2222222222222222222222 ##&&#&&&&# #&,&,, 2222222222222222222222222222222222222",
"2222222222222222222222 X#&&#&&&&&&&&,&,& 2222222222222222222222222222222222222",
"2222222222222222222222                   2222222222222222222222222222222222222",
"222222222222222222222 *- *--< <<<< 11< 11 222222222222222222222222222222222222",
"222222222222222222222                     222222222222222222222222222222222222",
"222222222222222222222  oOOOOO:::::::::OO  222222222222222222222222222222222222",
"2222222222222222222222 OO+@+:  >>>>>  :+ 2222222222222222222222222222222222222",
"2222222222222222222222 oO@@@>>>>@@@@@>>@ 2222222222222222222222222222222222222",
"2222222222222222222222  O+O@@@@@@   @@@@ 2222222222222222222222222222222222222",
"2222222222         22    OO@@@@%@%%%%@@@ 2222222222222222222222222222222222222",
"222222222 1<111<1<;  >:$ o +O@@@@@@@@@@+  222222222222222222222222222222222222",
"222222222 <;;;;;;;-  >>:   OO@@+O@@@+O+O > 22222222222222222222222222222222222",
"222222222 <;<;;;<;-  >>:$  o OOOOOOOO OO > 22222222222222222222222222222222222",
"222222222 <;-;;;-;-  >  $$   oOO oOOo o  :   222222222222222222222222222222222",
"222222222 <;;;;;;;-                        <1 22222222222222222222222222222222",
"222222222 <;;;;;;;-   **;;;<<<1<111<<;;;*  ;< 22222222222222222222222222222222",
"222222222 <;;;;;;;-                        *; 22222222222222222222222222222222",
"222222222 <;;;;;;;- 222                  22  222222222222222222222222222222222",
"222222222 <;<;;;<;- 222 =.            .= 2222222222222222222222222222222222222",
"222222222 <;-;;;-;- 222 . 222222222222 . 2222222222222222222222222222222222222",
"222222222 ;-------* 222  2222222222222  22222222222222222222222222222222222222",
"2222222222         22222222222222222222222222222222222222222222222222222222222",
"222222222222222222222222222222222222222222222222222222222222222222222222222222",
"222222222222222222222222222222222222222222222222222222222222222222222222222222",
"222222222222222222222222222222222222222222222222222222222222222222222222222222",
"222222222222222222222222222222222222222222222222222222222222222222222222222222",
"222222222222222222222222222222222222222222222222222222222222222222222222222222",
"222222222222222222222222222222222222222222222222222222222222222222222222222222",
"222222222222222222222222222222222222222222222222222222222222222222222222222222",
"222222222222222222222222222222222222222222222222222222222222222222222222222222",
"222222222222222222222222222222222222222222222222222222222222222222222222222222",
"222222222222222222222222222222222222222222222222222222222222222222222222222222",
"222222222222222222222222222222222222222222222222222222222222222222222222222222",
"222222222222222222222222222222222222222222222222222222222222222222222222222222",
"222222222222222222222222222222222222222222222222222222222222222222222222222222"
};
