/* XPM */
static char *result[] = {
/* columns rows colors chars-per-pixel */
"102 92 7 1 ",
"  c #282828",
". c #3E384F",
"X c #556DBA",
"o c #6287C1",
"O c #6C97C8",
"+ c #7AB6D0",
"@ c #A2E1E3",
/* pixels */
"                                                                                                      ",
"                                                                                                      ",
"                                                                                                      ",
"                                                                                                      ",
"                                                                                                      ",
"                                                                                                      ",
"                                                                                                      ",
"                                                                                                      ",
"                                                                                                      ",
"                                                                                                      ",
"                                                                                                      ",
"                                                                                                      ",
"                                                                                                      ",
"                      ......................................................                          ",
"                      ......................................................                          ",
"                      ......................................................                          ",
"                      ......................................................                          ",
"                      ......................................................                          ",
"                      ......................................................                          ",
"                      ......................................................                          ",
"               .............ooooooo@@@@@@@@@@@@@@+++++++++++++@@@@@@@@@@@@@@.......                   ",
"               .............ooooooo@@@@@@@@@@@@@@+++++++++++++@@@@@@@@@@@@@@.......                   ",
"               .............ooooooo@@@@@@@@@@@@@@+++++++++++++@@@@@@@@@@@@@@.......                   ",
"               .............ooooooo@@@@@@@@@@@@@@+++++++++++++@@@@@@@@@@@@@@.......                   ",
"               .............ooooooo@@@@@@@@@@@@@@+++++++++++++@@@@@@@@@@@@@@.......                   ",
"               .............ooooooo@@@@@@@@@@@@@@+++++++++++++@@@@@@@@@@@@@@.......                   ",
"               .............ooooooo@@@@@@@@@@@@@@+++++++++++++@@@@@@@@@@@@@@.......                   ",
"        ..............oooooo@@@@@@@@@@@@@@+++++++++++++++++++++++++++@@@@@@@@@@@@@@.......            ",
"        ..............oooooo@@@@@@@@@@@@@@+++++++++++++++++++++++++++@@@@@@@@@@@@@@.......            ",
"        ..............oooooo@@@@@@@@@@@@@@+++++++++++++++++++++++++++@@@@@@@@@@@@@@.......            ",
"        ..............oooooo@@@@@@@@@@@@@@+++++++++++++++++++++++++++@@@@@@@@@@@@@@.......            ",
"        ..............oooooo@@@@@@@@@@@@@@+++++++++++++++++++++++++++@@@@@@@@@@@@@@.......            ",
"        ..............oooooo@@@@@@@@@@@@@@+++++++++++++++++++++++++++@@@@@@@@@@@@@@.......            ",
"        ..............oooooo@@@@@@@@@@@@@@+++++++++++++++++++++++++++@@@@@@@@@@@@@@.......            ",
"        ..............XXXXXX@@@@@@@@@@@@@@OOOOOOOOOOOOOOOOOOOOOOOOOOO++++++++++++++.......            ",
"        ..............XXXXXX@@@@@@@@@@@@@@OOOOOOOOOOOOOOOOOOOOOOOOOOO++++++++++++++.......            ",
"        ..............XXXXXX@@@@@@@@@@@@@@OOOOOOOOOOOOOOOOOOOOOOOOOOO++++++++++++++.......            ",
"        ..............XXXXXX@@@@@@@@@@@@@@OOOOOOOOOOOOOOOOOOOOOOOOOOO++++++++++++++.......            ",
"        ..............XXXXXX@@@@@@@@@@@@@@OOOOOOOOOOOOOOOOOOOOOOOOOOO++++++++++++++.......            ",
"        ..............XXXXXX@@@@@@@@@@@@@@OOOOOOOOOOOOOOOOOOOOOOOOOOO++++++++++++++.......            ",
"        ..............XXXXXX@@@@@@@@@@@@@@OOOOOOOOOOOOOOOOOOOOOOOOOOO++++++++++++++.......            ",
"        ..............XXXXXX@@@@@@@@@@@@@@OOOOOOOOOOOOOOOOOOOOOOOOOOO++++++++++++++.......            ",
"        ..............XXXXXX@@@@@@@@@@@@@@OOOOOOOOOOOOOOOOOOOOOOOOOOO++++++++++++++.......            ",
"        ..............XXXXXX@@@@@@@@@@@@@@OOOOOOOOOOOOOOOOOOOOOOOOOOO++++++++++++++.......            ",
"        ..............XXXXXX@@@@@@@@@@@@@@OOOOOOOOOOOOOOOOOOOOOOOOOOO++++++++++++++.......            ",
"        ..............XXXXXX@@@@@@@@@@@@@@OOOOOOOOOOOOOOOOOOOOOOOOOOO++++++++++++++.......            ",
"        ..............XXXXXX@@@@@@@@@@@@@@OOOOOOOOOOOOOOOOOOOOOOOOOOO++++++++++++++.......            ",
"               .............XXXXXXX@@@@@@@OOOOOOOOOOOOOOOOOOOO++++++++++++++.......                   ",
"               .............XXXXXXX@@@@@@@OOOOOOOOOOOOOOOOOOOO++++++++++++++.......                   ",
"               .............XXXXXXX@@@@@@@OOOOOOOOOOOOOOOOOOOO++++++++++++++.......                   ",
"               .............XXXXXXX@@@@@@@OOOOOOOOOOOOOOOOOOOO++++++++++++++.......                   ",
"               .............XXXXXXX@@@@@@@OOOOOOOOOOOOOOOOOOOO++++++++++++++.......                   ",
"               .............XXXXXXX@@@@@@@OOOOOOOOOOOOOOOOOOOO++++++++++++++.......                   ",
"               .............XXXXXXX@@@@@@@OOOOOOOOOOOOOOOOOOOO++++++++++++++.......                   ",
"                      .............@@@@@@@OOOOOOOOOOOOOOOOOOOO+++++++.......                          ",
"                      .............@@@@@@@OOOOOOOOOOOOOOOOOOOO+++++++.......                          ",
"                      .............@@@@@@@OOOOOOOOOOOOOOOOOOOO+++++++.......                          ",
"                      .............@@@@@@@OOOOOOOOOOOOOOOOOOOO+++++++.......                          ",
"                      .............@@@@@@@OOOOOOOOOOOOOOOOOOOO+++++++.......                          ",
"                      .............@@@@@@@OOOOOOOOOOOOOOOOOOOO+++++++.......                          ",
"                      .............@@@@@@@OOOOOOOOOOOOOOOOOOOO+++++++.......                          ",
"                            ..............@@@@@@@OOOOOOO++++++.......                                 ",
"                            ..............@@@@@@@OOOOOOO++++++.......                                 ",
"                            ..............@@@@@@@OOOOOOO++++++.......                                 ",
"                            ..............@@@@@@@OOOOOOO++++++.......                                 ",
"                            ..............@@@@@@@OOOOOOO++++++.......                                 ",
"                            ..............@@@@@@@OOOOOOO++++++.......                                 ",
"                            ..............@@@@@@@OOOOOOO++++++.......                                 ",
"                                   ..............@@@@@@@......                                        ",
"                                   ..............@@@@@@@......                                        ",
"                                   ..............@@@@@@@......                                        ",
"                                   ..............@@@@@@@......                                        ",
"                                   ..............@@@@@@@......                                        ",
"                                   ..............@@@@@@@......                                        ",
"                                   ..............@@@@@@@......                                        ",
"                                          ..............                                              ",
"                                          ..............                                              ",
"                                          ..............                                              ",
"                                          ..............                                              ",
"                                          ..............                                              ",
"                                          ..............                                              ",
"                                                                                                      ",
"                                                                                                      ",
"                                                                                                      ",
"                                                                                                      ",
"                                                                                                      ",
"                                                                                                      ",
"                                                                                                      ",
"                                                                                                      ",
"                                                                                                      ",
"                                                                                                      ",
"                                                                                                      "
};
