/* XPM */
static char *result[] = {
/* columns rows colors chars-per-pixel */
"53 65 141 2 ",
"   c #6E5967",
".  c #6E5B69",
"X  c #705A67",
"o  c #745C69",
"O  c #7C5E6B",
"+  c #6A606F",
"@  c #79616D",
"#  c #676675",
"$  c #6C6574",
"%  c #666877",
"&  c #656B7B",
"*  c #6D6B7A",
"=  c #756774",
"-  c #726A76",
";  c #736C78",
":  c #796D7B",
">  c #6E707E",
",  c #70707E",
"<  c #815F6D",
"1  c #83626E",
"2  c #88626F",
"3  c #826670",
"4  c #8C6371",
"5  c #856972",
"6  c #8B6C73",
"7  c #936773",
"8  c #986776",
"9  c #966974",
"0  c #9C6A76",
"q  c #9F6D78",
"w  c #8F7077",
"e  c #937277",
"r  c #9C7176",
"t  c #95757A",
"y  c #9B757A",
"u  c #9E7A7E",
"i  c #A66774",
"p  c #A26C77",
"a  c #A46C79",
"s  c #AA6F7A",
"d  c #B06A76",
"f  c #A47279",
"g  c #AD707B",
"h  c #A17B7E",
"j  c #AB7B7F",
"k  c #B4757C",
"l  c #B9777C",
"z  c #B2797F",
"x  c #BB797E",
"c  c #5F7485",
"v  c #6B7281",
"b  c #667C8C",
"n  c #717684",
"m  c #7F7782",
"M  c #747986",
"N  c #7A7C87",
"B  c #727D8B",
"V  c #7D7F89",
"C  c #A47F81",
"Z  c #AD7D81",
"A  c #B37B81",
"S  c #C27C80",
"D  c #CA7C81",
"F  c #DB7E84",
"G  c #6F808F",
"H  c #76808D",
"J  c #79818C",
"K  c #6E8694",
"L  c #7C8690",
"P  c #7B8994",
"I  c #778E9A",
"U  c #7A949F",
"Y  c #7F97A1",
"T  c #A58382",
"R  c #AD8485",
"E  c #AE8C87",
"W  c #B38384",
"Q  c #BB8584",
"!  c #B28B87",
"~  c #BC8986",
"^  c #B68788",
"/  c #BB8788",
"(  c #B48988",
")  c #BC8D8B",
"_  c #B4918A",
"`  c #BA948D",
"'  c #B7A59D",
"]  c #8399A1",
"[  c #C08B87",
"{  c #C28E8C",
"}  c #CF8C89",
"|  c #D38284",
" . c #DE8788",
".. c #C1928E",
"X. c #CB928C",
"o. c #D2918C",
"O. c #D4988F",
"+. c #C39490",
"@. c #C69C91",
"#. c #C99D92",
"$. c #D59C92",
"%. c #DF9991",
"&. c #E28989",
"*. c #E5928E",
"=. c #E99C93",
"-. c #CDA195",
";. c #D7A094",
":. c #D8A496",
">. c #D3AA9A",
",. c #DBAA9A",
"<. c #DEB29F",
"1. c #EBA297",
"2. c #EDA599",
"3. c #EFAB9C",
"4. c #F0AE9D",
"5. c #E3B39F",
"6. c #F1B09F",
"7. c #DFB3A0",
"8. c #DFB9A6",
"9. c #DFBFAB",
"0. c #E0B4A0",
"q. c #EAB4A1",
"w. c #E8BBA4",
"e. c #F3B4A1",
"r. c #F5B9A5",
"t. c #DDC2AE",
"y. c #DEC5B2",
"u. c #DECAB6",
"i. c #DECDBA",
"p. c #EFC0A8",
"a. c #F6C1AA",
"s. c #F9C4AA",
"d. c #FBCAAE",
"f. c #ECC5B2",
"g. c #F3C5B0",
"h. c #FBCDB2",
"j. c #FBD2B6",
"k. c #FBD5B9",
"l. c #FADFC3",
"z. c #FAE0C4",
"x. c None",
/* pixels */
"x.x.x.x.x.x.x.x.x.x.                                                X X               x.x.x.x.x.x.x.x.x.x.",
"x.x.x.x.x.x.x.x.    ` :.R 1 O.<.<.5.t.t.8.i.u.8.$.e h ;.<.5.<.u.t.t.i.i.y.<.O.3 W :._     x.x.x.x.x.x.x.x.",
"x.x.x.x.x.x.    ~ @.w.s.@.w a.d.d.d.j.j.h.k.k.d.a.u ! a.d.d.d.j.d.h.k.k.j.d.s.6 #.s.w.#.~     x.x.x.x.x.x.",
"x.x.x.x.x.6 W ' f.h.d.d.-.w d.d.d.d.d.d.d.d.d.d.d.T _ d.d.d.d.d.d.d.d.d.d.d.d.w -.d.d.d.f.' ! 6 x.x.x.x.x.",
"x.x.x.x.6 ) g.l.l.h.d.s.@.6 a.d.d.d.d.d.d.h.d.d.a.h ! s.d.d.d.d.d.s.d.d.d.d.s.w @.a.d.j.z.z.g.! 6 x.x.x.x.",
"x.x.x.5 ! a.l.d.d.s.r.4.~ 5 2.6.r.r.r.r.r.r.r.r.2.r j 2.s.6.s.6.a.a.a.6.p.6.1.5 ~ 4.r.s.d.d.z.a.~ 5 x.x.x.",
"x.x.  W g.l.d.d.d.4.*.&.l 1  .| | | | |  .| | | | 9 p | | | | | | | |  .| | | 2 l &.*.3.d.d.d.z.a.W   x.x.",
"x.x.  ` d.h.d.d.4.*.&.F d   o o o o o o o o   o @     @ @ X @ X X o o X o @ X X d F &.*.3.d.d.d.h.`   x.x.",
"x.  ^ q.d.d.d.6.*.&.s 1 o o 4 i a a a a a p p 7 o   # %   o 4 0 i p p p a p 4 o o < s &.*.3.d.d.d.5.^   x.",
"x.  #.s.d.d.a.&.&.s O   o 4 a g s s s s g s g a o   % c   o a s k g g g g g a 7 o   O s &.*.a.d.d.s.#.  x.",
"  Z q.d.d.s.4.&.s @ X X o 1 2 2 4 2 4 4 4 4 4 2 o   % &   o 4 4 2 2 2 2 2 4 2 1 o     @ g &.6.s.d.d.5.Z . ",
"  :.s.d.d.r.=.&.@ X o 1 2 2 2 2 2 2 3 4 2 2 2 < X   % &       o X X X X     X X         O &.=.r.d.d.s.:.  ",
"  <.d.d.d.r. .S o o 4 a k k z z A A A A A A d 8 o   % v     O 3 5 5 6 6 5 5 5 5 1 1 < o o S &.r.d.d.d.5.  ",
"  <.d.d.d.r.D o o 4 a s k Q +...+.+.+.+.+.+.A A < X v n   o s A ) X.+.+.........~ z a 2     | e.d.d.d.<.  ",
"  O.r.d.r.=.D   o 8 k s A @.+.+.+.+.+.+.+.+.+.A O   v n   o s ) +.+.+.+...@...@...Q s 0     | =.a.d.r.O.  ",
"  @ 3 5 3 3 O   o o o o O @ @ @ @ @ @ O O O O o   X % *   o o O @ @ @ @ @ @ @ @ @ @ o O     O 1 3 3 5 @   ",
"  ~ -.>.-.[ l   X     4 f R R R R C R R R C R R q O v v o p R R R R C R R R R R f 3   o     k } -.>.;.W   ",
"  ,.s.d.s.6.|   & v & = y +.+.+.+.+.+.+.+.+.+.+./ 4 * v 3 / +.+.+.+.+.+.+.+.+.+.y = & v % o D 4.s.d.s.,.  ",
"  t.d.d.d.e.|   b I K & 6 +.+.+.+.+.+.+.+.+.+.+.+.w * v 3 +.+.+.+.+.+.+.+.+.+.+.6 * K I b   | r.d.d.h.t.  ",
"  i.k.d.d.r.|   n P H : t +.+.+.+.+.+.+.+.+.+.+.+.w v n 3 +.+.+.+.+.+.+.+.+.+.+.y : B L n   | r.d.d.k.u.  ",
"  u.k.d.d.r.|   O @ @ 0 Q +.+.+.+.+.+.+.+.+.+.+.{ 6 n M 3 / +.+.+.+.+.+.+.+.+.+.A 9 @ @ o X | e.d.d.k.u.  ",
"  <.d.d.d.r.|   p ( +.` +.....+.+.+.` ` +...{ +.k < m L O Z +.` ` +.+.+.+.` +.) +.+.+.) p   | r.d.d.d.<.  ",
"  u.k.d.d.r.|     O @ O O @ @ o @ @ @ o @ O O @ o X m ] . o @ O @ = @ @ @ @ @ @ @ @ O @ o   | r.d.d.k.u.  ",
"  8.d.d.d.e.|                                       n L o a R R Z R R Z R R R R R R R C 8   | r.d.d.h.8.  ",
"  7.d.d.d.r.|   < 4 7 7 8 7 7 7 7 8 7 7 8 8 7 8 < o n N 3 / +.+.+.+.+.+.+.+.+.+.+.+.+.{ W   D r.d.d.d.5.  ",
"  7.d.d.d.r.|   8 s g g g g g g s s g g g g s s a < M N 3 +.+.+.+.+.+.+.+.+.+.+.+.+.+.+.)   | r.d.d.d.<.  ",
"  ,.d.d.s.6.|   0 s g g g s g s g g s g s s A s a < M V @ ) +.+.+.+.+.+.+.` +.+.+.+.....R   D 6.s.d.d.,.  ",
"  [ ,.<.,.o.x   4 0 p p p p p p p p p p p p 8 q 7 O v n O a ( ! ( ( ( ( ^ ( ( ( ^ ! ( W 8 o S o.,.<.,.[   ",
"  o @ o @ o o   X o o o o o o o o o o o o o O o o   v n   o o o o o o o o o o o o o o X o   o o @ @ @ o   ",
"  X.q.p.5.%.D   p ^ ) ` ) ) ) ` ) ) ) ) ) ) ) ) g < & & o s ) ) ` ) ) ) ) ) ` ) ` ..) ^ q   D %.5.p.5.X.  ",
"  ,.d.d.d.6.|   ^ ..+.+.+.+.+.+.+.+.+.+.@.+.+.+.{ 6 & & 3 { +.+.+.+.+.+.+.+.+.+...+.....W   | 6.d.d.d.,.  ",
"  y.j.d.d.r.|   ^ +.+.+.+.+.+.+.+.+.+.+.` +.+.W t O . # o t A { +.+.+.+.+.+.+.+.....@...)   | r.d.d.j.t.  ",
"o i.k.d.s.r.|   Z { +.{ +.+.+...+...+...+.../ 8 m V - - N N 4 ( ` +.+.+.+.+.+.+.+.+.+.) A   | r.h.d.k.f.  ",
"  y.h.d.h.r.|   7 h C C C C C C C C C C C h q . P ] N ; ] ] . 0 C C C C C C C C C C C u 7   D r.d.d.j.u.  ",
"  8.h.d.d.r.|                                   B Y N - I ] . O O 3 3 3 3 3 @ 5 3 3 3 3 o   | r.d.d.g.8.  ",
"  i.k.d.s.r.|       o o o o o o o o o o o o   o B Y N * I ] . a ) +.+.+.+.+.+.+.+.+.+.) s   | r.d.d.k.i.  ",
"  7.h.s.h.r.D     2 p s s s s s s s s s s s 4 . B Y N * I ]   ^ +.+.+.+.+.+.+.+.+.+.+.+.(   F r.d.d.d.7.  ",
"  7.d.d.s.r.|     8 s s g g g g s s g g g s s o B Y N * I ]   ( +.+.+.+.+.+.+.+.+.+.+.+.)   | r.d.d.d.7.  ",
"  7.d.d.h.r.F     7 a s s s s s g g g s s s 8 o B Y N - I ]   Z ) +.+.+.+.` +.+.+.+.+.{ Z   | r.d.d.d.0.  ",
"  :.s.d.a.3.|     o 2 7 4 7 4 7 2 2 7 4 4 4 O   B Y N * I ]   2 4 C e w C t w C t t t w 2   D 3.a.d.s.:.  ",
"  R @.@.` Q g   < 6 w w w w w w e e 6 e e w 2 o B Y N * I ]                                 g Q ` @...Z   ",
"  2 e e w 6 2   j ) +.+.+.+.+.+.+.+.+.+.+.` A o B Y N * I ] o o O O O O < < O < O < O o     3 6 t t e 5   ",
"  $.a.d.s.2.|   ) +.+.+.+.+.+.+.+.+.+.+.+.+.) O B Y M - I ] o 4 i A A s g g g g s s i 4     | 1.a.d.a.$.  ",
"  <.d.d.d.6.|   ( +.+.+.+.+.+.+.+.+.+.+.+.+.) O B Y N - I ]   p s s s s g g g g g A s 8     | r.d.d.d.7.  ",
"  i.k.d.d.r.|   g ) +.+.+.+.+.+.+.+.+.+.+.) Z o B Y N - I ] o 7 a A s s s g s s g g i 4     | r.d.d.j.u.  ",
"  i.k.d.d.6.|   < 3 6 6 6 6 5 6 6 5 6 5 6 6 <   b Y N * I ]   o < O < O < < < O < < O o     D r.d.d.k.i.  ",
"  t.h.d.d.a.|   4 y u u u u u u u u u u u u 9 o v Y N $ K ] o 6 q C C C C C y C C C y t C   D r.d.d.h.t.  ",
"  p.h.d.d.6.|   4 u h R ^ +.+.+.+.+.+.+.+.+./ 4 * M n % v V 4 W ) +.) ....+...+./ Z C C e   F r.d.d.d.t.  ",
"  y.j.d.d.6.| X = - - 5 h ..@...+.+.+.+.+.+.+.A 7 o * & o 4 A ` +.+.+.+.+.+.+.+.h 5 - * $   | r.d.d.j.u.  ",
"  <.d.d.d.a.| + H U I > w ......+.+.+.+.+.+.+.+.^ 5 & & 1 ^ ..+.+.+.+.+.+.+.+.+.6 > I Y B   | r.d.d.d.5.  ",
"  <.d.d.d.6.|   & K G % e +.@...+.+.+.+.+.+.+.+.+.w n n 3 +.+.+.+.+.+.+.+.+.+.+.6 & G K c   | e.d.d.d.<.  ",
"  <.d.d.d.6.|   + + + 3 A +.....+.+.+.+.+.+.+.+.A 1 , n 3 +.+.+.+.+.+.+.+.+.+.+.Z 4 . + .   | r.d.d.d.<.  ",
"  ;.s.d.s.2.|         o 1 5 5 5 3 3 3 5 3 3 5 3 1 o , M o 5 3 3 5 5 5 5 3 5 5 5 3 o     X   | 2.s.d.s.$.X ",
"  e T T T r 9   1 4 7 7 7 7 7 7 8 8 8 7 7 8 8 < o   & v o 9 u C u C u u u C C u h C u u 4   7 h T T T t X ",
"  y R E R h 9 X 8 s g g g g g g g g g g Z s s i o   * v 3 Q +.+.+.+.+.+.+.+.+.+.+.+...{ A   0 f R E R r X ",
"  ;.s.d.s.2.| X 0 s g g g g g g g g g s s s A a O o & v 3 +.+.+.+.+.+.+.+.+.+.+.+.+.+.+._   | 2.s.d.s.$.  ",
"  8.h.d.h.r.D   4 8 p p p p p p p p p p p p a 4 o   & v 3 { +.+.+.+.+.+.+.+.+.+.X.......( X | r.d.d.d.t.  ",
"  f.k.d.d.r.|     o                                 * n O k ....` ....` ......` ....` ~ a X | r.d.d.k.i.  ",
"  i.k.d.d.r.| o       o                             & &   o o o O O @ o @ o O O o @ @ o o   | r.d.d.k.i.  ",
"  8.h.d.d.r.D   7 Z R R R E W R ( R R ( R ( R R f < % &                               X     | e.d.d.h.<.  ",
"  ;.a.h.r.4.|   A +.+.+.+.+.+.+.+.+.+.+.+.+.+.+.) 6 & &   o 7 7 7 7 7 7 7 7 7 7 9 7 9 2     | 2.s.d.s.;.  ",
"  } 2.3.2.&.D o R ) +.+.+.+.+.+.+.+.+.+.+.+.+.+./ 4 # c   o p s s s k g g g g g g g s 7     D *.1.3.2.}   ",
"  g z x l k i   7 C C C C C C C C C C C C C C C q o + %   X < 7 8 9 9 8 9 8 8 7 7 7 7 @     i l l l l s   ",
"                        o                                 X X     X           X                     X X   ",
"                                                                                                          "
};
